solid CATIA STL
  facet normal  -0.000000e+000  -0.000000e+000 -1.000000e+000
    outer loop
      vertex  1.100000e+002  8.400000e+001 -9.750000e+001
      vertex  1.160000e+002  8.400000e+001 -9.750000e+001
      vertex  1.200000e+002  8.100000e+001 -9.750000e+001
    endloop
  endfacet
  facet normal  -0.000000e+000  0.000000e+000 -1.000000e+000
    outer loop
      vertex  1.100000e+002  8.400000e+001 -9.750000e+001
      vertex  1.200000e+002  8.100000e+001 -9.750000e+001
      vertex  1.197071e+002  8.029289e+001 -9.750000e+001
    endloop
  endfacet
  facet normal  -0.000000e+000  0.000000e+000 -1.000000e+000
    outer loop
      vertex  1.100000e+002  8.400000e+001 -9.750000e+001
      vertex  1.197071e+002  8.029289e+001 -9.750000e+001
      vertex  1.190000e+002  8.000000e+001 -9.750000e+001
    endloop
  endfacet
  facet normal  0.000000e+000  0.000000e+000 -1.000000e+000
    outer loop
      vertex  1.100000e+002  8.400000e+001 -9.750000e+001
      vertex  1.190000e+002  8.000000e+001 -9.750000e+001
      vertex  1.100000e+002  8.000000e+001 -9.750000e+001
    endloop
  endfacet
  facet normal  0.000000e+000  0.000000e+000 -1.000000e+000
    outer loop
      vertex  1.200000e+002  8.100000e+001 -9.750000e+001
      vertex  1.160000e+002  8.400000e+001 -9.750000e+001
      vertex  1.200000e+002  9.900000e+001 -9.750000e+001
    endloop
  endfacet
  facet normal  0.000000e+000  0.000000e+000 -1.000000e+000
    outer loop
      vertex  1.200000e+002  9.900000e+001 -9.750000e+001
      vertex  1.160000e+002  8.400000e+001 -9.750000e+001
      vertex  1.160000e+002  9.600000e+001 -9.750000e+001
    endloop
  endfacet
  facet normal  0.000000e+000  0.000000e+000 -1.000000e+000
    outer loop
      vertex  1.200000e+002  9.900000e+001 -9.750000e+001
      vertex  1.160000e+002  9.600000e+001 -9.750000e+001
      vertex  1.000000e+002  9.900000e+001 -9.750000e+001
    endloop
  endfacet
  facet normal  0.000000e+000  0.000000e+000 -1.000000e+000
    outer loop
      vertex  1.000000e+002  9.900000e+001 -9.750000e+001
      vertex  1.160000e+002  9.600000e+001 -9.750000e+001
      vertex  1.040000e+002  9.600000e+001 -9.750000e+001
    endloop
  endfacet
  facet normal  -0.000000e+000  0.000000e+000 -1.000000e+000
    outer loop
      vertex  1.000000e+002  9.900000e+001 -9.750000e+001
      vertex  1.040000e+002  9.600000e+001 -9.750000e+001
      vertex  1.000000e+002  9.000000e+001 -9.750000e+001
    endloop
  endfacet
  facet normal  0.000000e+000  0.000000e+000 -1.000000e+000
    outer loop
      vertex  1.000000e+002  9.000000e+001 -9.750000e+001
      vertex  1.040000e+002  9.600000e+001 -9.750000e+001
      vertex  1.040000e+002  9.000000e+001 -9.750000e+001
    endloop
  endfacet
  facet normal  0.000000e+000  0.000000e+000 -9.999999e-001
    outer loop
      vertex  1.200000e+002  9.900000e+001 -9.750000e+001
      vertex  1.000000e+002  9.900000e+001 -9.750000e+001
      vertex  1.197071e+002  9.970711e+001 -9.750000e+001
    endloop
  endfacet
  facet normal  -0.000000e+000  0.000000e+000 -1.000000e+000
    outer loop
      vertex  1.197071e+002  9.970711e+001 -9.750000e+001
      vertex  1.000000e+002  9.900000e+001 -9.750000e+001
      vertex  1.002929e+002  9.970711e+001 -9.750000e+001
    endloop
  endfacet
  facet normal  0.000000e+000  0.000000e+000 -1.000000e+000
    outer loop
      vertex  1.197071e+002  9.970711e+001 -9.750000e+001
      vertex  1.002929e+002  9.970711e+001 -9.750000e+001
      vertex  1.190000e+002  1.000000e+002 -9.750000e+001
    endloop
  endfacet
  facet normal  -0.000000e+000  0.000000e+000 -1.000000e+000
    outer loop
      vertex  1.190000e+002  1.000000e+002 -9.750000e+001
      vertex  1.002929e+002  9.970711e+001 -9.750000e+001
      vertex  1.010000e+002  1.000000e+002 -9.750000e+001
    endloop
  endfacet
  facet normal  1.000000e+000  0.000000e+000  0.000000e+000
    outer loop
      vertex  1.200000e+002  1.000000e+000 -9.750000e+001
      vertex  1.200000e+002  1.900000e+001 -9.750000e+001
      vertex  1.200000e+002  1.000000e+000  1.500000e+000
    endloop
  endfacet
  facet normal  1.000000e+000  0.000000e+000  0.000000e+000
    outer loop
      vertex  1.200000e+002  1.000000e+000  1.500000e+000
      vertex  1.200000e+002  1.900000e+001 -9.750000e+001
      vertex  1.200000e+002  1.900000e+001 -1.500000e+000
    endloop
  endfacet
  facet normal  1.000000e+000  0.000000e+000  -0.000000e+000
    outer loop
      vertex  1.200000e+002  1.000000e+000  1.500000e+000
      vertex  1.200000e+002  1.900000e+001 -1.500000e+000
      vertex  1.200000e+002  9.900000e+001  1.500000e+000
    endloop
  endfacet
  facet normal  1.000000e+000  0.000000e+000  0.000000e+000
    outer loop
      vertex  1.200000e+002  9.900000e+001  1.500000e+000
      vertex  1.200000e+002  1.900000e+001 -1.500000e+000
      vertex  1.200000e+002  8.100000e+001 -1.500000e+000
    endloop
  endfacet
  facet normal  1.000000e+000  -0.000000e+000  0.000000e+000
    outer loop
      vertex  1.200000e+002  9.900000e+001  1.500000e+000
      vertex  1.200000e+002  8.100000e+001 -1.500000e+000
      vertex  1.200000e+002  9.900000e+001 -9.750000e+001
    endloop
  endfacet
  facet normal  1.000000e+000  0.000000e+000  0.000000e+000
    outer loop
      vertex  1.200000e+002  9.900000e+001 -9.750000e+001
      vertex  1.200000e+002  8.100000e+001 -1.500000e+000
      vertex  1.200000e+002  8.100000e+001 -9.750000e+001
    endloop
  endfacet
  facet normal  -0.000000e+000  -0.000000e+000 -1.000000e+000
    outer loop
      vertex -1.100000e+002  2.000000e+001 -2.500000e+000
      vertex  1.100000e+002  2.000000e+001 -2.500000e+000
      vertex  1.100000e+002  1.000000e+001 -2.500000e+000
    endloop
  endfacet
  facet normal  0.000000e+000  0.000000e+000 -1.000000e+000
    outer loop
      vertex -1.100000e+002  2.000000e+001 -2.500000e+000
      vertex  1.100000e+002  1.000000e+001 -2.500000e+000
      vertex  1.000000e+002  1.000000e+001 -2.500000e+000
    endloop
  endfacet
  facet normal  0.000000e+000  0.000000e+000 -1.000000e+000
    outer loop
      vertex -1.100000e+002  2.000000e+001 -2.500000e+000
      vertex  1.000000e+002  1.000000e+001 -2.500000e+000
      vertex -1.000000e+002  1.000000e+001 -2.500000e+000
    endloop
  endfacet
  facet normal  0.000000e+000  0.000000e+000 -1.000000e+000
    outer loop
      vertex -1.100000e+002  2.000000e+001 -2.500000e+000
      vertex -1.000000e+002  1.000000e+001 -2.500000e+000
      vertex -1.100000e+002  1.000000e+001 -2.500000e+000
    endloop
  endfacet
  facet normal  0.000000e+000  0.000000e+000 -1.000000e+000
    outer loop
      vertex -1.100000e+002  8.000000e+001 -2.500000e+000
      vertex -1.100000e+002  9.000000e+001 -2.500000e+000
      vertex -1.000000e+002  9.000000e+001 -2.500000e+000
    endloop
  endfacet
  facet normal  0.000000e+000  -0.000000e+000 -1.000000e+000
    outer loop
      vertex -1.100000e+002  8.000000e+001 -2.500000e+000
      vertex -1.000000e+002  9.000000e+001 -2.500000e+000
      vertex  1.000000e+002  9.000000e+001 -2.500000e+000
    endloop
  endfacet
  facet normal  0.000000e+000  -0.000000e+000 -1.000000e+000
    outer loop
      vertex -1.100000e+002  8.000000e+001 -2.500000e+000
      vertex  1.000000e+002  9.000000e+001 -2.500000e+000
      vertex  1.100000e+002  9.000000e+001 -2.500000e+000
    endloop
  endfacet
  facet normal  0.000000e+000  -0.000000e+000 -1.000000e+000
    outer loop
      vertex -1.100000e+002  8.000000e+001 -2.500000e+000
      vertex  1.100000e+002  9.000000e+001 -2.500000e+000
      vertex  1.100000e+002  8.000000e+001 -2.500000e+000
    endloop
  endfacet
  facet normal  0.000000e+000  0.000000e+000 -1.000000e+000
    outer loop
      vertex  1.190000e+002  8.000000e+001 -2.500000e+000
      vertex  1.190000e+002  2.000000e+001 -2.500000e+000
      vertex  1.100000e+002  2.000000e+001 -2.500000e+000
    endloop
  endfacet
  facet normal  0.000000e+000  0.000000e+000 -1.000000e+000
    outer loop
      vertex  1.190000e+002  8.000000e+001 -2.500000e+000
      vertex  1.100000e+002  2.000000e+001 -2.500000e+000
      vertex -1.100000e+002  2.000000e+001 -2.500000e+000
    endloop
  endfacet
  facet normal  0.000000e+000  0.000000e+000 -1.000000e+000
    outer loop
      vertex  1.190000e+002  8.000000e+001 -2.500000e+000
      vertex -1.100000e+002  2.000000e+001 -2.500000e+000
      vertex -1.190000e+002  2.000000e+001 -2.500000e+000
    endloop
  endfacet
  facet normal  0.000000e+000  0.000000e+000 -1.000000e+000
    outer loop
      vertex -1.190000e+002  2.000000e+001 -2.500000e+000
      vertex -1.190000e+002  8.000000e+001 -2.500000e+000
      vertex -1.100000e+002  8.000000e+001 -2.500000e+000
    endloop
  endfacet
  facet normal  0.000000e+000  -0.000000e+000 -1.000000e+000
    outer loop
      vertex -1.190000e+002  2.000000e+001 -2.500000e+000
      vertex -1.100000e+002  8.000000e+001 -2.500000e+000
      vertex  1.100000e+002  8.000000e+001 -2.500000e+000
    endloop
  endfacet
  facet normal  0.000000e+000  -0.000000e+000 -1.000000e+000
    outer loop
      vertex -1.190000e+002  2.000000e+001 -2.500000e+000
      vertex  1.100000e+002  8.000000e+001 -2.500000e+000
      vertex  1.190000e+002  8.000000e+001 -2.500000e+000
    endloop
  endfacet
  facet normal  -0.000000e+000  0.000000e+000 -1.000000e+000
    outer loop
      vertex -1.000000e+002  9.900000e+001 -2.500000e+000
      vertex -1.421085e-014  9.900000e+001 -2.500000e+000
      vertex -1.000000e+002  9.000000e+001 -2.500000e+000
    endloop
  endfacet
  facet normal  0.000000e+000  0.000000e+000 -1.000000e+000
    outer loop
      vertex -1.000000e+002  9.000000e+001 -2.500000e+000
      vertex -1.421085e-014  9.900000e+001 -2.500000e+000
      vertex  1.000000e+002  9.900000e+001 -2.500000e+000
    endloop
  endfacet
  facet normal  0.000000e+000  -0.000000e+000 -1.000000e+000
    outer loop
      vertex -1.000000e+002  9.000000e+001 -2.500000e+000
      vertex  1.000000e+002  9.900000e+001 -2.500000e+000
      vertex  1.000000e+002  9.000000e+001 -2.500000e+000
    endloop
  endfacet
  facet normal  0.000000e+000  0.000000e+000 -1.000000e+000
    outer loop
      vertex  1.000000e+002  1.000000e+000 -2.500000e+000
      vertex -1.421085e-014  1.000000e+000 -2.500000e+000
      vertex  1.000000e+002  1.000000e+001 -2.500000e+000
    endloop
  endfacet
  facet normal  0.000000e+000  0.000000e+000 -1.000000e+000
    outer loop
      vertex  1.000000e+002  1.000000e+001 -2.500000e+000
      vertex -1.421085e-014  1.000000e+000 -2.500000e+000
      vertex -1.000000e+002  1.000000e+000 -2.500000e+000
    endloop
  endfacet
  facet normal  0.000000e+000  0.000000e+000 -1.000000e+000
    outer loop
      vertex  1.000000e+002  1.000000e+001 -2.500000e+000
      vertex -1.000000e+002  1.000000e+000 -2.500000e+000
      vertex -1.000000e+002  1.000000e+001 -2.500000e+000
    endloop
  endfacet
  facet normal  0.000000e+000  0.000000e+000 -1.000000e+000
    outer loop
      vertex  1.100000e+002  1.600000e+001 -9.750000e+001
      vertex  1.100000e+002  2.000000e+001 -9.750000e+001
      vertex  1.160000e+002  1.600000e+001 -9.750000e+001
    endloop
  endfacet
  facet normal  0.000000e+000  0.000000e+000 -1.000000e+000
    outer loop
      vertex  1.160000e+002  1.600000e+001 -9.750000e+001
      vertex  1.100000e+002  2.000000e+001 -9.750000e+001
      vertex  1.200000e+002  1.900000e+001 -9.750000e+001
    endloop
  endfacet
  facet normal  0.000000e+000  0.000000e+000 -1.000000e+000
    outer loop
      vertex  1.160000e+002  1.600000e+001 -9.750000e+001
      vertex  1.200000e+002  1.900000e+001 -9.750000e+001
      vertex  1.160000e+002  4.000000e+000 -9.750000e+001
    endloop
  endfacet
  facet normal  0.000000e+000  0.000000e+000 -1.000000e+000
    outer loop
      vertex  1.160000e+002  4.000000e+000 -9.750000e+001
      vertex  1.200000e+002  1.900000e+001 -9.750000e+001
      vertex  1.200000e+002  1.000000e+000 -9.750000e+001
    endloop
  endfacet
  facet normal  0.000000e+000  0.000000e+000 -1.000000e+000
    outer loop
      vertex  1.160000e+002  4.000000e+000 -9.750000e+001
      vertex  1.200000e+002  1.000000e+000 -9.750000e+001
      vertex  1.040000e+002  4.000000e+000 -9.750000e+001
    endloop
  endfacet
  facet normal  0.000000e+000  -0.000000e+000 -1.000000e+000
    outer loop
      vertex  1.040000e+002  4.000000e+000 -9.750000e+001
      vertex  1.200000e+002  1.000000e+000 -9.750000e+001
      vertex  1.000000e+002  1.000000e+000 -9.750000e+001
    endloop
  endfacet
  facet normal  0.000000e+000  0.000000e+000 -1.000000e+000
    outer loop
      vertex  1.040000e+002  4.000000e+000 -9.750000e+001
      vertex  1.000000e+002  1.000000e+000 -9.750000e+001
      vertex  1.040000e+002  1.000000e+001 -9.750000e+001
    endloop
  endfacet
  facet normal  -0.000000e+000  0.000000e+000 -1.000000e+000
    outer loop
      vertex  1.040000e+002  1.000000e+001 -9.750000e+001
      vertex  1.000000e+002  1.000000e+000 -9.750000e+001
      vertex  1.000000e+002  1.000000e+001 -9.750000e+001
    endloop
  endfacet
  facet normal  0.000000e+000  0.000000e+000 -1.000000e+000
    outer loop
      vertex  1.190000e+002  0.000000e+000 -9.750000e+001
      vertex  1.010000e+002  0.000000e+000 -9.750000e+001
      vertex  1.197071e+002  2.928932e-001 -9.750000e+001
    endloop
  endfacet
  facet normal  -0.000000e+000  0.000000e+000 -1.000000e+000
    outer loop
      vertex  1.197071e+002  2.928932e-001 -9.750000e+001
      vertex  1.010000e+002  0.000000e+000 -9.750000e+001
      vertex  1.002929e+002  2.928932e-001 -9.750000e+001
    endloop
  endfacet
  facet normal  0.000000e+000  0.000000e+000 -1.000000e+000
    outer loop
      vertex  1.197071e+002  2.928932e-001 -9.750000e+001
      vertex  1.002929e+002  2.928932e-001 -9.750000e+001
      vertex  1.200000e+002  1.000000e+000 -9.750000e+001
    endloop
  endfacet
  facet normal  -0.000000e+000  0.000000e+000 -1.000000e+000
    outer loop
      vertex  1.200000e+002  1.000000e+000 -9.750000e+001
      vertex  1.002929e+002  2.928932e-001 -9.750000e+001
      vertex  1.000000e+002  1.000000e+000 -9.750000e+001
    endloop
  endfacet
  facet normal  -0.000000e+000  -0.000000e+000 -1.000000e+000
    outer loop
      vertex  1.100000e+002  2.000000e+001 -9.750000e+001
      vertex  1.190000e+002  2.000000e+001 -9.750000e+001
      vertex  1.200000e+002  1.900000e+001 -9.750000e+001
    endloop
  endfacet
  facet normal  0.000000e+000  0.000000e+000 -9.999999e-001
    outer loop
      vertex  1.200000e+002  1.900000e+001 -9.750000e+001
      vertex  1.190000e+002  2.000000e+001 -9.750000e+001
      vertex  1.197071e+002  1.970711e+001 -9.750000e+001
    endloop
  endfacet
  facet normal  0.000000e+000 -1.000000e+000  0.000000e+000
    outer loop
      vertex  1.100000e+002  8.000000e+001 -9.750000e+001
      vertex  1.190000e+002  8.000000e+001 -9.750000e+001
      vertex  1.100000e+002  8.000000e+001 -2.500000e+000
    endloop
  endfacet
  facet normal  0.000000e+000 -1.000000e+000  0.000000e+000
    outer loop
      vertex  1.100000e+002  8.000000e+001 -2.500000e+000
      vertex  1.190000e+002  8.000000e+001 -9.750000e+001
      vertex  1.190000e+002  8.000000e+001 -2.500000e+000
    endloop
  endfacet
  facet normal  0.000000e+000  1.000000e+000  0.000000e+000
    outer loop
      vertex  1.190000e+002  2.000000e+001 -9.750000e+001
      vertex  1.100000e+002  2.000000e+001 -9.750000e+001
      vertex  1.190000e+002  2.000000e+001 -2.500000e+000
    endloop
  endfacet
  facet normal  0.000000e+000  1.000000e+000  0.000000e+000
    outer loop
      vertex  1.190000e+002  2.000000e+001 -2.500000e+000
      vertex  1.100000e+002  2.000000e+001 -9.750000e+001
      vertex  1.100000e+002  2.000000e+001 -2.500000e+000
    endloop
  endfacet
  facet normal  9.527836e-001  3.036501e-001  -0.000000e+000
    outer loop
      vertex  1.200000e+002  1.900000e+001 -1.500000e+000
      vertex  1.200000e+002  1.900000e+001 -9.750000e+001
      vertex  1.198156e+002  1.957864e+001 -2.078633e+000
    endloop
  endfacet
  facet normal  9.238799e-001  3.826822e-001 -5.351104e-004
    outer loop
      vertex  1.198156e+002  1.957864e+001 -2.078633e+000
      vertex  1.200000e+002  1.900000e+001 -9.750000e+001
      vertex  1.197071e+002  1.970711e+001 -9.750000e+001
    endloop
  endfacet
  facet normal  7.042449e-001  7.099572e-001  1.552172e-004
    outer loop
      vertex  1.198156e+002  1.957864e+001 -2.078633e+000
      vertex  1.197071e+002  1.970711e+001 -9.750000e+001
      vertex  1.195722e+002  1.982011e+001 -2.320108e+000
    endloop
  endfacet
  facet normal  3.586110e-001  9.334869e-001 -6.000205e-004
    outer loop
      vertex  1.195722e+002  1.982011e+001 -2.320108e+000
      vertex  1.197071e+002  1.970711e+001 -9.750000e+001
      vertex  1.191236e+002  1.999233e+001 -2.492330e+000
    endloop
  endfacet
  facet normal  3.826822e-001  9.238800e-001 -4.233466e-004
    outer loop
      vertex  1.191236e+002  1.999233e+001 -2.492330e+000
      vertex  1.197071e+002  1.970711e+001 -9.750000e+001
      vertex  1.190000e+002  2.000000e+001 -9.750000e+001
    endloop
  endfacet
  facet normal  6.192192e-002  9.980810e-001  -0.000000e+000
    outer loop
      vertex  1.191236e+002  1.999233e+001 -2.492330e+000
      vertex  1.190000e+002  2.000000e+001 -9.750000e+001
      vertex  1.190000e+002  2.000000e+001 -2.500000e+000
    endloop
  endfacet
  facet normal  9.527837e-001  0.000000e+000 -3.036496e-001
    outer loop
      vertex  1.200000e+002  8.100000e+001 -1.500000e+000
      vertex  1.200000e+002  1.900000e+001 -1.500000e+000
      vertex  1.198156e+002  8.042136e+001 -2.078637e+000
    endloop
  endfacet
  facet normal  9.527830e-001 -2.141803e-008 -3.036517e-001
    outer loop
      vertex  1.198156e+002  8.042136e+001 -2.078637e+000
      vertex  1.200000e+002  1.900000e+001 -1.500000e+000
      vertex  1.198156e+002  1.957864e+001 -2.078633e+000
    endloop
  endfacet
  facet normal  7.043204e-001 -5.007146e-008 -7.098823e-001
    outer loop
      vertex  1.198156e+002  8.042136e+001 -2.078637e+000
      vertex  1.198156e+002  1.957864e+001 -2.078633e+000
      vertex  1.195722e+002  8.017989e+001 -2.320108e+000
    endloop
  endfacet
  facet normal  7.043267e-001  0.000000e+000 -7.098761e-001
    outer loop
      vertex  1.195722e+002  8.017989e+001 -2.320108e+000
      vertex  1.198156e+002  1.957864e+001 -2.078633e+000
      vertex  1.195722e+002  1.982011e+001 -2.320108e+000
    endloop
  endfacet
  facet normal  3.584099e-001  0.000000e+000 -9.335643e-001
    outer loop
      vertex  1.195722e+002  8.017989e+001 -2.320108e+000
      vertex  1.195722e+002  1.982011e+001 -2.320108e+000
      vertex  1.191236e+002  8.000767e+001 -2.492330e+000
    endloop
  endfacet
  facet normal  3.584099e-001  0.000000e+000 -9.335643e-001
    outer loop
      vertex  1.191236e+002  8.000767e+001 -2.492330e+000
      vertex  1.195722e+002  1.982011e+001 -2.320108e+000
      vertex  1.191236e+002  1.999233e+001 -2.492330e+000
    endloop
  endfacet
  facet normal  6.192767e-002  0.000000e+000 -9.980806e-001
    outer loop
      vertex  1.191236e+002  8.000767e+001 -2.492330e+000
      vertex  1.191236e+002  1.999233e+001 -2.492330e+000
      vertex  1.190000e+002  8.000000e+001 -2.500000e+000
    endloop
  endfacet
  facet normal  6.192768e-002  0.000000e+000 -9.980807e-001
    outer loop
      vertex  1.190000e+002  8.000000e+001 -2.500000e+000
      vertex  1.191236e+002  1.999233e+001 -2.492330e+000
      vertex  1.190000e+002  2.000000e+001 -2.500000e+000
    endloop
  endfacet
  facet normal  9.238800e-001 -3.826822e-001  0.000000e+000
    outer loop
      vertex  1.197071e+002  8.029289e+001 -9.750000e+001
      vertex  1.200000e+002  8.100000e+001 -9.750000e+001
      vertex  1.200000e+002  8.100000e+001 -1.500000e+000
    endloop
  endfacet
  facet normal  9.529787e-001 -3.030368e-001 -6.754234e-004
    outer loop
      vertex  1.197071e+002  8.029289e+001 -9.750000e+001
      vertex  1.200000e+002  8.100000e+001 -1.500000e+000
      vertex  1.198156e+002  8.042136e+001 -2.078637e+000
    endloop
  endfacet
  facet normal  7.042420e-001 -7.099600e-001  1.552241e-004
    outer loop
      vertex  1.197071e+002  8.029289e+001 -9.750000e+001
      vertex  1.198156e+002  8.042136e+001 -2.078637e+000
      vertex  1.195722e+002  8.017989e+001 -2.320108e+000
    endloop
  endfacet
  facet normal  3.586179e-001 -9.334843e-001 -5.999887e-004
    outer loop
      vertex  1.197071e+002  8.029289e+001 -9.750000e+001
      vertex  1.195722e+002  8.017989e+001 -2.320108e+000
      vertex  1.191236e+002  8.000767e+001 -2.492330e+000
    endloop
  endfacet
  facet normal  6.206801e-002 -9.980686e-001 -2.615137e-003
    outer loop
      vertex  1.197071e+002  8.029289e+001 -9.750000e+001
      vertex  1.191236e+002  8.000767e+001 -2.492330e+000
      vertex  1.190000e+002  8.000000e+001 -2.500000e+000
    endloop
  endfacet
  facet normal  3.826822e-001 -9.238800e-001  0.000000e+000
    outer loop
      vertex  1.197071e+002  8.029289e+001 -9.750000e+001
      vertex  1.190000e+002  8.000000e+001 -2.500000e+000
      vertex  1.190000e+002  8.000000e+001 -9.750000e+001
    endloop
  endfacet
  facet normal  0.000000e+000  9.238799e-001  3.826825e-001
    outer loop
      vertex -1.190000e+002  1.000000e+002  1.500000e+000
      vertex -1.190000e+002  9.970711e+001  2.207107e+000
      vertex  0.000000e+000  1.000000e+002  1.500000e+000
    endloop
  endfacet
  facet normal  0.000000e+000  3.826830e-001  9.238796e-001
    outer loop
      vertex -1.190000e+002  9.900000e+001  2.500000e+000
      vertex  1.190000e+002  9.900000e+001  2.500000e+000
      vertex -1.190000e+002  9.970711e+001  2.207107e+000
    endloop
  endfacet
  facet normal  -0.000000e+000  3.826830e-001  9.238796e-001
    outer loop
      vertex -1.190000e+002  9.970711e+001  2.207107e+000
      vertex  1.190000e+002  9.900000e+001  2.500000e+000
      vertex  1.190000e+002  9.970711e+001  2.207107e+000
    endloop
  endfacet
  facet normal  0.000000e+000  9.238799e-001  3.826825e-001
    outer loop
      vertex -1.190000e+002  9.970711e+001  2.207107e+000
      vertex  1.190000e+002  9.970711e+001  2.207107e+000
      vertex  0.000000e+000  1.000000e+002  1.500000e+000
    endloop
  endfacet
  facet normal  -0.000000e+000  9.238799e-001  3.826825e-001
    outer loop
      vertex  0.000000e+000  1.000000e+002  1.500000e+000
      vertex  1.190000e+002  9.970711e+001  2.207107e+000
      vertex  1.190000e+002  1.000000e+002  1.500000e+000
    endloop
  endfacet
  facet normal  0.000000e+000  0.000000e+000 -1.000000e+000
    outer loop
      vertex -1.000000e+002  9.000000e+001 -9.750000e+001
      vertex -1.040000e+002  9.000000e+001 -9.750000e+001
      vertex -1.000000e+002  9.900000e+001 -9.750000e+001
    endloop
  endfacet
  facet normal  0.000000e+000  0.000000e+000 -1.000000e+000
    outer loop
      vertex -1.000000e+002  9.900000e+001 -9.750000e+001
      vertex -1.040000e+002  9.000000e+001 -9.750000e+001
      vertex -1.040000e+002  9.600000e+001 -9.750000e+001
    endloop
  endfacet
  facet normal  0.000000e+000  0.000000e+000 -1.000000e+000
    outer loop
      vertex -1.000000e+002  9.900000e+001 -9.750000e+001
      vertex -1.040000e+002  9.600000e+001 -9.750000e+001
      vertex -1.200000e+002  9.900000e+001 -9.750000e+001
    endloop
  endfacet
  facet normal  0.000000e+000  0.000000e+000 -1.000000e+000
    outer loop
      vertex -1.200000e+002  9.900000e+001 -9.750000e+001
      vertex -1.040000e+002  9.600000e+001 -9.750000e+001
      vertex -1.160000e+002  9.600000e+001 -9.750000e+001
    endloop
  endfacet
  facet normal  -0.000000e+000  0.000000e+000 -1.000000e+000
    outer loop
      vertex -1.200000e+002  9.900000e+001 -9.750000e+001
      vertex -1.160000e+002  9.600000e+001 -9.750000e+001
      vertex -1.200000e+002  8.100000e+001 -9.750000e+001
    endloop
  endfacet
  facet normal  0.000000e+000  0.000000e+000 -1.000000e+000
    outer loop
      vertex -1.200000e+002  8.100000e+001 -9.750000e+001
      vertex -1.160000e+002  9.600000e+001 -9.750000e+001
      vertex -1.160000e+002  8.400000e+001 -9.750000e+001
    endloop
  endfacet
  facet normal  0.000000e+000  0.000000e+000 -1.000000e+000
    outer loop
      vertex -1.200000e+002  8.100000e+001 -9.750000e+001
      vertex -1.160000e+002  8.400000e+001 -9.750000e+001
      vertex -1.197071e+002  8.029289e+001 -9.750000e+001
    endloop
  endfacet
  facet normal  0.000000e+000  0.000000e+000 -1.000000e+000
    outer loop
      vertex -1.197071e+002  8.029289e+001 -9.750000e+001
      vertex -1.160000e+002  8.400000e+001 -9.750000e+001
      vertex -1.100000e+002  8.400000e+001 -9.750000e+001
    endloop
  endfacet
  facet normal  0.000000e+000  0.000000e+000 -1.000000e+000
    outer loop
      vertex -1.197071e+002  8.029289e+001 -9.750000e+001
      vertex -1.100000e+002  8.400000e+001 -9.750000e+001
      vertex -1.190000e+002  8.000000e+001 -9.750000e+001
    endloop
  endfacet
  facet normal  0.000000e+000  0.000000e+000 -1.000000e+000
    outer loop
      vertex -1.190000e+002  8.000000e+001 -9.750000e+001
      vertex -1.100000e+002  8.400000e+001 -9.750000e+001
      vertex -1.100000e+002  8.000000e+001 -9.750000e+001
    endloop
  endfacet
  facet normal  0.000000e+000  0.000000e+000 -9.999999e-001
    outer loop
      vertex -1.000000e+002  9.900000e+001 -9.750000e+001
      vertex -1.200000e+002  9.900000e+001 -9.750000e+001
      vertex -1.002929e+002  9.970711e+001 -9.750000e+001
    endloop
  endfacet
  facet normal  -0.000000e+000  0.000000e+000 -1.000000e+000
    outer loop
      vertex -1.002929e+002  9.970711e+001 -9.750000e+001
      vertex -1.200000e+002  9.900000e+001 -9.750000e+001
      vertex -1.197071e+002  9.970711e+001 -9.750000e+001
    endloop
  endfacet
  facet normal  0.000000e+000  0.000000e+000 -1.000000e+000
    outer loop
      vertex -1.002929e+002  9.970711e+001 -9.750000e+001
      vertex -1.197071e+002  9.970711e+001 -9.750000e+001
      vertex -1.010000e+002  1.000000e+002 -9.750000e+001
    endloop
  endfacet
  facet normal  -0.000000e+000  0.000000e+000 -1.000000e+000
    outer loop
      vertex -1.010000e+002  1.000000e+002 -9.750000e+001
      vertex -1.197071e+002  9.970711e+001 -9.750000e+001
      vertex -1.190000e+002  1.000000e+002 -9.750000e+001
    endloop
  endfacet
  facet normal  0.000000e+000  1.000000e+000  -0.000000e+000
    outer loop
      vertex  0.000000e+000  1.000000e+002  1.500000e+000
      vertex  0.000000e+000  1.000000e+002 -1.500000e+000
      vertex -1.190000e+002  1.000000e+002  1.500000e+000
    endloop
  endfacet
  facet normal  0.000000e+000  1.000000e+000  0.000000e+000
    outer loop
      vertex -1.190000e+002  1.000000e+002  1.500000e+000
      vertex  0.000000e+000  1.000000e+002 -1.500000e+000
      vertex -1.010000e+002  1.000000e+002 -1.500000e+000
    endloop
  endfacet
  facet normal  0.000000e+000  1.000000e+000  0.000000e+000
    outer loop
      vertex -1.190000e+002  1.000000e+002  1.500000e+000
      vertex -1.010000e+002  1.000000e+002 -1.500000e+000
      vertex -1.190000e+002  1.000000e+002 -9.750000e+001
    endloop
  endfacet
  facet normal  0.000000e+000  1.000000e+000  0.000000e+000
    outer loop
      vertex -1.190000e+002  1.000000e+002 -9.750000e+001
      vertex -1.010000e+002  1.000000e+002 -1.500000e+000
      vertex -1.010000e+002  1.000000e+002 -9.750000e+001
    endloop
  endfacet
  facet normal  0.000000e+000  1.000000e+000  0.000000e+000
    outer loop
      vertex  1.190000e+002  1.000000e+002 -9.750000e+001
      vertex  1.010000e+002  1.000000e+002 -9.750000e+001
      vertex  1.190000e+002  1.000000e+002  1.500000e+000
    endloop
  endfacet
  facet normal  0.000000e+000  1.000000e+000  0.000000e+000
    outer loop
      vertex  1.190000e+002  1.000000e+002  1.500000e+000
      vertex  1.010000e+002  1.000000e+002 -9.750000e+001
      vertex  1.010000e+002  1.000000e+002 -1.500000e+000
    endloop
  endfacet
  facet normal  0.000000e+000  1.000000e+000  -0.000000e+000
    outer loop
      vertex  1.190000e+002  1.000000e+002  1.500000e+000
      vertex  1.010000e+002  1.000000e+002 -1.500000e+000
      vertex  0.000000e+000  1.000000e+002  1.500000e+000
    endloop
  endfacet
  facet normal  0.000000e+000  1.000000e+000  0.000000e+000
    outer loop
      vertex  0.000000e+000  1.000000e+002  1.500000e+000
      vertex  1.010000e+002  1.000000e+002 -1.500000e+000
      vertex  0.000000e+000  1.000000e+002 -1.500000e+000
    endloop
  endfacet
  facet normal -1.000000e+000  0.000000e+000  0.000000e+000
    outer loop
      vertex -1.200000e+002  1.000000e+000  1.500000e+000
      vertex -1.200000e+002  1.900000e+001 -9.750000e+001
      vertex -1.200000e+002  1.000000e+000 -9.750000e+001
    endloop
  endfacet
  facet normal -1.000000e+000  0.000000e+000  0.000000e+000
    outer loop
      vertex -1.200000e+002  1.900000e+001 -9.750000e+001
      vertex -1.200000e+002  1.000000e+000  1.500000e+000
      vertex -1.200000e+002  1.900000e+001 -1.500000e+000
    endloop
  endfacet
  facet normal -1.000000e+000  0.000000e+000  0.000000e+000
    outer loop
      vertex -1.200000e+002  1.900000e+001 -1.500000e+000
      vertex -1.200000e+002  1.000000e+000  1.500000e+000
      vertex -1.200000e+002  9.900000e+001  1.500000e+000
    endloop
  endfacet
  facet normal -1.000000e+000  0.000000e+000  0.000000e+000
    outer loop
      vertex -1.200000e+002  1.900000e+001 -1.500000e+000
      vertex -1.200000e+002  9.900000e+001  1.500000e+000
      vertex -1.200000e+002  8.100000e+001 -1.500000e+000
    endloop
  endfacet
  facet normal -1.000000e+000  0.000000e+000  0.000000e+000
    outer loop
      vertex -1.200000e+002  8.100000e+001 -1.500000e+000
      vertex -1.200000e+002  9.900000e+001  1.500000e+000
      vertex -1.200000e+002  9.900000e+001 -9.750000e+001
    endloop
  endfacet
  facet normal -1.000000e+000  0.000000e+000  0.000000e+000
    outer loop
      vertex -1.200000e+002  8.100000e+001 -1.500000e+000
      vertex -1.200000e+002  9.900000e+001 -9.750000e+001
      vertex -1.200000e+002  8.100000e+001 -9.750000e+001
    endloop
  endfacet
  facet normal -9.238799e-001  0.000000e+000  3.826826e-001
    outer loop
      vertex -1.200000e+002  9.900000e+001  1.500000e+000
      vertex -1.200000e+002  1.000000e+000  1.500000e+000
      vertex -1.197071e+002  9.900000e+001  2.207107e+000
    endloop
  endfacet
  facet normal -9.238799e-001  0.000000e+000  3.826826e-001
    outer loop
      vertex -1.197071e+002  9.900000e+001  2.207107e+000
      vertex -1.200000e+002  1.000000e+000  1.500000e+000
      vertex -1.197071e+002  1.000000e+000  2.207107e+000
    endloop
  endfacet
  facet normal -3.826830e-001  0.000000e+000  9.238797e-001
    outer loop
      vertex -1.197071e+002  9.900000e+001  2.207107e+000
      vertex -1.197071e+002  1.000000e+000  2.207107e+000
      vertex -1.190000e+002  9.900000e+001  2.500000e+000
    endloop
  endfacet
  facet normal -3.826830e-001  0.000000e+000  9.238797e-001
    outer loop
      vertex -1.190000e+002  9.900000e+001  2.500000e+000
      vertex -1.197071e+002  1.000000e+000  2.207107e+000
      vertex -1.190000e+002  1.000000e+000  2.500000e+000
    endloop
  endfacet
  facet normal  0.000000e+000  0.000000e+000  1.000000e+000
    outer loop
      vertex -1.190000e+002  1.000000e+000  2.500000e+000
      vertex  1.190000e+002  1.000000e+000  2.500000e+000
      vertex -1.190000e+002  9.900000e+001  2.500000e+000
    endloop
  endfacet
  facet normal  -0.000000e+000  0.000000e+000  1.000000e+000
    outer loop
      vertex -1.190000e+002  9.900000e+001  2.500000e+000
      vertex  1.190000e+002  1.000000e+000  2.500000e+000
      vertex  1.190000e+002  9.900000e+001  2.500000e+000
    endloop
  endfacet
  facet normal  3.826830e-001  -0.000000e+000  9.238797e-001
    outer loop
      vertex  1.190000e+002  9.900000e+001  2.500000e+000
      vertex  1.190000e+002  1.000000e+000  2.500000e+000
      vertex  1.197071e+002  9.900000e+001  2.207107e+000
    endloop
  endfacet
  facet normal  3.826830e-001  0.000000e+000  9.238797e-001
    outer loop
      vertex  1.197071e+002  9.900000e+001  2.207107e+000
      vertex  1.190000e+002  1.000000e+000  2.500000e+000
      vertex  1.197071e+002  1.000000e+000  2.207107e+000
    endloop
  endfacet
  facet normal  9.238799e-001  -0.000000e+000  3.826826e-001
    outer loop
      vertex  1.197071e+002  9.900000e+001  2.207107e+000
      vertex  1.197071e+002  1.000000e+000  2.207107e+000
      vertex  1.200000e+002  9.900000e+001  1.500000e+000
    endloop
  endfacet
  facet normal  9.238799e-001  0.000000e+000  3.826826e-001
    outer loop
      vertex  1.200000e+002  9.900000e+001  1.500000e+000
      vertex  1.197071e+002  1.000000e+000  2.207107e+000
      vertex  1.200000e+002  1.000000e+000  1.500000e+000
    endloop
  endfacet
  facet normal  9.238800e-001  3.826822e-001  -0.000000e+000
    outer loop
      vertex  1.200000e+002  9.900000e+001  1.500000e+000
      vertex  1.200000e+002  9.900000e+001 -9.750000e+001
      vertex  1.197071e+002  9.970711e+001  1.500000e+000
    endloop
  endfacet
  facet normal  9.238800e-001  3.826822e-001  0.000000e+000
    outer loop
      vertex  1.197071e+002  9.970711e+001  1.500000e+000
      vertex  1.200000e+002  9.900000e+001 -9.750000e+001
      vertex  1.197071e+002  9.970711e+001 -9.750000e+001
    endloop
  endfacet
  facet normal  3.826822e-001  9.238800e-001  -0.000000e+000
    outer loop
      vertex  1.197071e+002  9.970711e+001  1.500000e+000
      vertex  1.197071e+002  9.970711e+001 -9.750000e+001
      vertex  1.190000e+002  1.000000e+002  1.500000e+000
    endloop
  endfacet
  facet normal  3.826822e-001  9.238800e-001  0.000000e+000
    outer loop
      vertex  1.190000e+002  1.000000e+002  1.500000e+000
      vertex  1.197071e+002  9.970711e+001 -9.750000e+001
      vertex  1.190000e+002  1.000000e+002 -9.750000e+001
    endloop
  endfacet
  facet normal -3.826822e-001  9.238800e-001  0.000000e+000
    outer loop
      vertex -1.190000e+002  1.000000e+002  1.500000e+000
      vertex -1.190000e+002  1.000000e+002 -9.750000e+001
      vertex -1.197071e+002  9.970711e+001  1.500000e+000
    endloop
  endfacet
  facet normal -3.826822e-001  9.238800e-001  0.000000e+000
    outer loop
      vertex -1.197071e+002  9.970711e+001  1.500000e+000
      vertex -1.190000e+002  1.000000e+002 -9.750000e+001
      vertex -1.197071e+002  9.970711e+001 -9.750000e+001
    endloop
  endfacet
  facet normal -9.238800e-001  3.826822e-001  0.000000e+000
    outer loop
      vertex -1.197071e+002  9.970711e+001  1.500000e+000
      vertex -1.197071e+002  9.970711e+001 -9.750000e+001
      vertex -1.200000e+002  9.900000e+001  1.500000e+000
    endloop
  endfacet
  facet normal -9.238800e-001  3.826822e-001  0.000000e+000
    outer loop
      vertex -1.200000e+002  9.900000e+001  1.500000e+000
      vertex -1.197071e+002  9.970711e+001 -9.750000e+001
      vertex -1.200000e+002  9.900000e+001 -9.750000e+001
    endloop
  endfacet
  facet normal -1.565577e-001  9.124873e-001  3.779636e-001
    outer loop
      vertex -1.190000e+002  1.000000e+002  1.500000e+000
      vertex -1.195000e+002  9.970711e+001  2.000000e+000
      vertex -1.190000e+002  9.970711e+001  2.207107e+000
    endloop
  endfacet
  facet normal -3.779633e-001  9.124874e-001  1.565581e-001
    outer loop
      vertex -1.190000e+002  1.000000e+002  1.500000e+000
      vertex -1.197071e+002  9.970711e+001  1.500000e+000
      vertex -1.195000e+002  9.970711e+001  2.000000e+000
    endloop
  endfacet
  facet normal -8.628561e-001  3.574054e-001  3.574080e-001
    outer loop
      vertex -1.197071e+002  9.970711e+001  1.500000e+000
      vertex -1.200000e+002  9.900000e+001  1.500000e+000
      vertex -1.195000e+002  9.970711e+001  2.000000e+000
    endloop
  endfacet
  facet normal -8.628563e-001  3.574071e-001  3.574058e-001
    outer loop
      vertex -1.195000e+002  9.970711e+001  2.000000e+000
      vertex -1.200000e+002  9.900000e+001  1.500000e+000
      vertex -1.197071e+002  9.900000e+001  2.207107e+000
    endloop
  endfacet
  facet normal -3.574068e-001  3.574068e-001  8.628561e-001
    outer loop
      vertex -1.195000e+002  9.970711e+001  2.000000e+000
      vertex -1.197071e+002  9.900000e+001  2.207107e+000
      vertex -1.190000e+002  9.970711e+001  2.207107e+000
    endloop
  endfacet
  facet normal -3.574064e-001  3.574064e-001  8.628565e-001
    outer loop
      vertex -1.190000e+002  9.970711e+001  2.207107e+000
      vertex -1.197071e+002  9.900000e+001  2.207107e+000
      vertex -1.190000e+002  9.900000e+001  2.500000e+000
    endloop
  endfacet
  facet normal  3.779633e-001  9.124874e-001  1.565581e-001
    outer loop
      vertex  1.190000e+002  1.000000e+002  1.500000e+000
      vertex  1.195000e+002  9.970711e+001  2.000000e+000
      vertex  1.197071e+002  9.970711e+001  1.500000e+000
    endloop
  endfacet
  facet normal  1.565577e-001  9.124873e-001  3.779636e-001
    outer loop
      vertex  1.190000e+002  1.000000e+002  1.500000e+000
      vertex  1.190000e+002  9.970711e+001  2.207107e+000
      vertex  1.195000e+002  9.970711e+001  2.000000e+000
    endloop
  endfacet
  facet normal  3.574069e-001  3.574063e-001  8.628563e-001
    outer loop
      vertex  1.190000e+002  9.970711e+001  2.207107e+000
      vertex  1.190000e+002  9.900000e+001  2.500000e+000
      vertex  1.195000e+002  9.970711e+001  2.000000e+000
    endloop
  endfacet
  facet normal  3.574064e-001  3.574067e-001  8.628563e-001
    outer loop
      vertex  1.195000e+002  9.970711e+001  2.000000e+000
      vertex  1.190000e+002  9.900000e+001  2.500000e+000
      vertex  1.197071e+002  9.900000e+001  2.207107e+000
    endloop
  endfacet
  facet normal  8.628555e-001  3.574074e-001  3.574077e-001
    outer loop
      vertex  1.195000e+002  9.970711e+001  2.000000e+000
      vertex  1.197071e+002  9.900000e+001  2.207107e+000
      vertex  1.197071e+002  9.970711e+001  1.500000e+000
    endloop
  endfacet
  facet normal  8.628569e-001  3.574057e-001  3.574060e-001
    outer loop
      vertex  1.197071e+002  9.970711e+001  1.500000e+000
      vertex  1.197071e+002  9.900000e+001  2.207107e+000
      vertex  1.200000e+002  9.900000e+001  1.500000e+000
    endloop
  endfacet
  facet normal  1.000000e+000  0.000000e+000  0.000000e+000
    outer loop
      vertex -1.000000e+002  9.000000e+001 -9.750000e+001
      vertex -1.000000e+002  9.900000e+001 -9.750000e+001
      vertex -1.000000e+002  9.000000e+001 -2.500000e+000
    endloop
  endfacet
  facet normal  1.000000e+000  -0.000000e+000  0.000000e+000
    outer loop
      vertex -1.000000e+002  9.000000e+001 -2.500000e+000
      vertex -1.000000e+002  9.900000e+001 -9.750000e+001
      vertex -1.000000e+002  9.900000e+001 -2.500000e+000
    endloop
  endfacet
  facet normal -1.000000e+000  0.000000e+000  0.000000e+000
    outer loop
      vertex  1.000000e+002  9.000000e+001 -9.750000e+001
      vertex  1.000000e+002  9.000000e+001 -2.500000e+000
      vertex  1.000000e+002  9.900000e+001 -9.750000e+001
    endloop
  endfacet
  facet normal -1.000000e+000  0.000000e+000  0.000000e+000
    outer loop
      vertex  1.000000e+002  9.900000e+001 -9.750000e+001
      vertex  1.000000e+002  9.000000e+001 -2.500000e+000
      vertex  1.000000e+002  9.900000e+001 -2.500000e+000
    endloop
  endfacet
  facet normal -3.036501e-001  9.527836e-001  0.000000e+000
    outer loop
      vertex  1.010000e+002  1.000000e+002 -1.500000e+000
      vertex  1.010000e+002  1.000000e+002 -9.750000e+001
      vertex  1.004214e+002  9.981559e+001 -2.078633e+000
    endloop
  endfacet
  facet normal -3.826822e-001  9.238799e-001 -5.351104e-004
    outer loop
      vertex  1.004214e+002  9.981559e+001 -2.078633e+000
      vertex  1.010000e+002  1.000000e+002 -9.750000e+001
      vertex  1.002929e+002  9.970711e+001 -9.750000e+001
    endloop
  endfacet
  facet normal -7.099600e-001  7.042420e-001  1.552241e-004
    outer loop
      vertex  1.004214e+002  9.981559e+001 -2.078633e+000
      vertex  1.002929e+002  9.970711e+001 -9.750000e+001
      vertex  1.001799e+002  9.957221e+001 -2.320108e+000
    endloop
  endfacet
  facet normal -9.334843e-001  3.586179e-001 -5.999887e-004
    outer loop
      vertex  1.001799e+002  9.957221e+001 -2.320108e+000
      vertex  1.002929e+002  9.970711e+001 -9.750000e+001
      vertex  1.000077e+002  9.912362e+001 -2.492330e+000
    endloop
  endfacet
  facet normal -9.238800e-001  3.826822e-001 -4.233651e-004
    outer loop
      vertex  1.000077e+002  9.912362e+001 -2.492330e+000
      vertex  1.002929e+002  9.970711e+001 -9.750000e+001
      vertex  1.000000e+002  9.900000e+001 -9.750000e+001
    endloop
  endfacet
  facet normal -9.980819e-001  6.190658e-002  0.000000e+000
    outer loop
      vertex  1.000077e+002  9.912362e+001 -2.492330e+000
      vertex  1.000000e+002  9.900000e+001 -9.750000e+001
      vertex  1.000000e+002  9.900000e+001 -2.500000e+000
    endloop
  endfacet
  facet normal  0.000000e+000  3.826830e-001 -9.238797e-001
    outer loop
      vertex -1.421085e-014  9.900000e+001 -2.500000e+000
      vertex -1.000000e+002  9.900000e+001 -2.500000e+000
      vertex  0.000000e+000  9.970711e+001 -2.207107e+000
    endloop
  endfacet
  facet normal  2.484294e-003  6.208099e-002 -9.980680e-001
    outer loop
      vertex  0.000000e+000  9.970711e+001 -2.207107e+000
      vertex -1.000000e+002  9.900000e+001 -2.500000e+000
      vertex -1.000077e+002  9.912362e+001 -2.492330e+000
    endloop
  endfacet
  facet normal  5.700941e-004  3.586006e-001 -9.334909e-001
    outer loop
      vertex  0.000000e+000  9.970711e+001 -2.207107e+000
      vertex -1.000077e+002  9.912362e+001 -2.492330e+000
      vertex -1.001799e+002  9.957221e+001 -2.320108e+000
    endloop
  endfacet
  facet normal  0.000000e+000  9.527837e-001 -3.036496e-001
    outer loop
      vertex -1.010000e+002  1.000000e+002 -1.500000e+000
      vertex  0.000000e+000  1.000000e+002 -1.500000e+000
      vertex -1.004214e+002  9.981559e+001 -2.078637e+000
    endloop
  endfacet
  facet normal  5.084730e-004  9.238797e-001 -3.826825e-001
    outer loop
      vertex -1.004214e+002  9.981559e+001 -2.078637e+000
      vertex  0.000000e+000  1.000000e+002 -1.500000e+000
      vertex  0.000000e+000  9.970711e+001 -2.207107e+000
    endloop
  endfacet
  facet normal -1.474729e-004  7.042466e-001 -7.099555e-001
    outer loop
      vertex -1.004214e+002  9.981559e+001 -2.078637e+000
      vertex  0.000000e+000  9.970711e+001 -2.207107e+000
      vertex -1.001799e+002  9.957221e+001 -2.320108e+000
    endloop
  endfacet
  facet normal  0.000000e+000  9.238799e-001 -3.826826e-001
    outer loop
      vertex  0.000000e+000  1.000000e+002 -1.500000e+000
      vertex  1.010000e+002  1.000000e+002 -1.500000e+000
      vertex  0.000000e+000  9.970711e+001 -2.207107e+000
    endloop
  endfacet
  facet normal -6.417338e-004  9.529684e-001 -3.030690e-001
    outer loop
      vertex  0.000000e+000  9.970711e+001 -2.207107e+000
      vertex  1.010000e+002  1.000000e+002 -1.500000e+000
      vertex  1.004214e+002  9.981559e+001 -2.078633e+000
    endloop
  endfacet
  facet normal  1.474884e-004  7.042528e-001 -7.099491e-001
    outer loop
      vertex  0.000000e+000  9.970711e+001 -2.207107e+000
      vertex  1.004214e+002  9.981559e+001 -2.078633e+000
      vertex  1.001799e+002  9.957221e+001 -2.320108e+000
    endloop
  endfacet
  facet normal -5.268250e-004  3.826829e-001 -9.238796e-001
    outer loop
      vertex  0.000000e+000  9.970711e+001 -2.207107e+000
      vertex  1.001799e+002  9.957221e+001 -2.320108e+000
      vertex -1.421085e-014  9.900000e+001 -2.500000e+000
    endloop
  endfacet
  facet normal -3.715859e-004  3.585342e-001 -9.335165e-001
    outer loop
      vertex -1.421085e-014  9.900000e+001 -2.500000e+000
      vertex  1.001799e+002  9.957221e+001 -2.320108e+000
      vertex  1.000077e+002  9.912362e+001 -2.492330e+000
    endloop
  endfacet
  facet normal  0.000000e+000  6.192768e-002 -9.980807e-001
    outer loop
      vertex -1.421085e-014  9.900000e+001 -2.500000e+000
      vertex  1.000077e+002  9.912362e+001 -2.492330e+000
      vertex  1.000000e+002  9.900000e+001 -2.500000e+000
    endloop
  endfacet
  facet normal  3.826822e-001  9.238800e-001  -0.000000e+000
    outer loop
      vertex -1.002929e+002  9.970711e+001 -9.750000e+001
      vertex -1.010000e+002  1.000000e+002 -9.750000e+001
      vertex -1.010000e+002  1.000000e+002 -1.500000e+000
    endloop
  endfacet
  facet normal  3.030368e-001  9.529787e-001 -6.754234e-004
    outer loop
      vertex -1.002929e+002  9.970711e+001 -9.750000e+001
      vertex -1.010000e+002  1.000000e+002 -1.500000e+000
      vertex -1.004214e+002  9.981559e+001 -2.078637e+000
    endloop
  endfacet
  facet normal  7.099600e-001  7.042420e-001  1.552241e-004
    outer loop
      vertex -1.002929e+002  9.970711e+001 -9.750000e+001
      vertex -1.004214e+002  9.981559e+001 -2.078637e+000
      vertex -1.001799e+002  9.957221e+001 -2.320108e+000
    endloop
  endfacet
  facet normal  9.334843e-001  3.586179e-001 -5.999887e-004
    outer loop
      vertex -1.002929e+002  9.970711e+001 -9.750000e+001
      vertex -1.001799e+002  9.957221e+001 -2.320108e+000
      vertex -1.000077e+002  9.912362e+001 -2.492330e+000
    endloop
  endfacet
  facet normal  9.980686e-001  6.206801e-002 -2.615137e-003
    outer loop
      vertex -1.002929e+002  9.970711e+001 -9.750000e+001
      vertex -1.000077e+002  9.912362e+001 -2.492330e+000
      vertex -1.000000e+002  9.900000e+001 -2.500000e+000
    endloop
  endfacet
  facet normal  9.238800e-001  3.826822e-001  0.000000e+000
    outer loop
      vertex -1.002929e+002  9.970711e+001 -9.750000e+001
      vertex -1.000000e+002  9.900000e+001 -2.500000e+000
      vertex -1.000000e+002  9.900000e+001 -9.750000e+001
    endloop
  endfacet
  facet normal  0.000000e+000  0.000000e+000 -1.000000e+000
    outer loop
      vertex -1.010000e+002  0.000000e+000 -9.750000e+001
      vertex -1.190000e+002  0.000000e+000 -9.750000e+001
      vertex -1.002929e+002  2.928932e-001 -9.750000e+001
    endloop
  endfacet
  facet normal  -0.000000e+000  0.000000e+000 -1.000000e+000
    outer loop
      vertex -1.002929e+002  2.928932e-001 -9.750000e+001
      vertex -1.190000e+002  0.000000e+000 -9.750000e+001
      vertex -1.197071e+002  2.928932e-001 -9.750000e+001
    endloop
  endfacet
  facet normal  0.000000e+000  0.000000e+000 -1.000000e+000
    outer loop
      vertex -1.002929e+002  2.928932e-001 -9.750000e+001
      vertex -1.197071e+002  2.928932e-001 -9.750000e+001
      vertex -1.000000e+002  1.000000e+000 -9.750000e+001
    endloop
  endfacet
  facet normal  -0.000000e+000  0.000000e+000 -1.000000e+000
    outer loop
      vertex -1.000000e+002  1.000000e+000 -9.750000e+001
      vertex -1.197071e+002  2.928932e-001 -9.750000e+001
      vertex -1.200000e+002  1.000000e+000 -9.750000e+001
    endloop
  endfacet
  facet normal  0.000000e+000  0.000000e+000 -1.000000e+000
    outer loop
      vertex -1.000000e+002  1.000000e+000 -9.750000e+001
      vertex -1.200000e+002  1.000000e+000 -9.750000e+001
      vertex -1.040000e+002  4.000000e+000 -9.750000e+001
    endloop
  endfacet
  facet normal  -0.000000e+000  0.000000e+000 -1.000000e+000
    outer loop
      vertex -1.040000e+002  4.000000e+000 -9.750000e+001
      vertex -1.200000e+002  1.000000e+000 -9.750000e+001
      vertex -1.160000e+002  4.000000e+000 -9.750000e+001
    endloop
  endfacet
  facet normal  0.000000e+000  0.000000e+000 -1.000000e+000
    outer loop
      vertex -1.160000e+002  4.000000e+000 -9.750000e+001
      vertex -1.200000e+002  1.000000e+000 -9.750000e+001
      vertex -1.160000e+002  1.600000e+001 -9.750000e+001
    endloop
  endfacet
  facet normal  -0.000000e+000  0.000000e+000 -1.000000e+000
    outer loop
      vertex -1.160000e+002  1.600000e+001 -9.750000e+001
      vertex -1.200000e+002  1.000000e+000 -9.750000e+001
      vertex -1.200000e+002  1.900000e+001 -9.750000e+001
    endloop
  endfacet
  facet normal  0.000000e+000  0.000000e+000 -1.000000e+000
    outer loop
      vertex -1.160000e+002  1.600000e+001 -9.750000e+001
      vertex -1.200000e+002  1.900000e+001 -9.750000e+001
      vertex -1.100000e+002  1.600000e+001 -9.750000e+001
    endloop
  endfacet
  facet normal  0.000000e+000  0.000000e+000 -1.000000e+000
    outer loop
      vertex -1.100000e+002  1.600000e+001 -9.750000e+001
      vertex -1.200000e+002  1.900000e+001 -9.750000e+001
      vertex -1.100000e+002  2.000000e+001 -9.750000e+001
    endloop
  endfacet
  facet normal  0.000000e+000  0.000000e+000 -9.999999e-001
    outer loop
      vertex -1.197071e+002  1.970711e+001 -9.750000e+001
      vertex -1.190000e+002  2.000000e+001 -9.750000e+001
      vertex -1.200000e+002  1.900000e+001 -9.750000e+001
    endloop
  endfacet
  facet normal  0.000000e+000  0.000000e+000 -1.000000e+000
    outer loop
      vertex -1.200000e+002  1.900000e+001 -9.750000e+001
      vertex -1.190000e+002  2.000000e+001 -9.750000e+001
      vertex -1.100000e+002  2.000000e+001 -9.750000e+001
    endloop
  endfacet
  facet normal  -0.000000e+000  0.000000e+000 -1.000000e+000
    outer loop
      vertex -1.040000e+002  1.000000e+001 -9.750000e+001
      vertex -1.000000e+002  1.000000e+001 -9.750000e+001
      vertex -1.040000e+002  4.000000e+000 -9.750000e+001
    endloop
  endfacet
  facet normal  0.000000e+000  0.000000e+000 -1.000000e+000
    outer loop
      vertex -1.040000e+002  4.000000e+000 -9.750000e+001
      vertex -1.000000e+002  1.000000e+001 -9.750000e+001
      vertex -1.000000e+002  1.000000e+000 -9.750000e+001
    endloop
  endfacet
  facet normal  0.000000e+000 -1.000000e+000  0.000000e+000
    outer loop
      vertex -1.190000e+002  8.000000e+001 -9.750000e+001
      vertex -1.100000e+002  8.000000e+001 -9.750000e+001
      vertex -1.190000e+002  8.000000e+001 -2.500000e+000
    endloop
  endfacet
  facet normal  0.000000e+000 -1.000000e+000  0.000000e+000
    outer loop
      vertex -1.190000e+002  8.000000e+001 -2.500000e+000
      vertex -1.100000e+002  8.000000e+001 -9.750000e+001
      vertex -1.100000e+002  8.000000e+001 -2.500000e+000
    endloop
  endfacet
  facet normal  0.000000e+000  1.000000e+000  0.000000e+000
    outer loop
      vertex -1.100000e+002  2.000000e+001 -9.750000e+001
      vertex -1.190000e+002  2.000000e+001 -9.750000e+001
      vertex -1.100000e+002  2.000000e+001 -2.500000e+000
    endloop
  endfacet
  facet normal  0.000000e+000  1.000000e+000  0.000000e+000
    outer loop
      vertex -1.100000e+002  2.000000e+001 -2.500000e+000
      vertex -1.190000e+002  2.000000e+001 -9.750000e+001
      vertex -1.190000e+002  2.000000e+001 -2.500000e+000
    endloop
  endfacet
  facet normal -9.527836e-001 -3.036501e-001  0.000000e+000
    outer loop
      vertex -1.200000e+002  8.100000e+001 -1.500000e+000
      vertex -1.200000e+002  8.100000e+001 -9.750000e+001
      vertex -1.198156e+002  8.042136e+001 -2.078633e+000
    endloop
  endfacet
  facet normal -9.238799e-001 -3.826822e-001 -5.351104e-004
    outer loop
      vertex -1.198156e+002  8.042136e+001 -2.078633e+000
      vertex -1.200000e+002  8.100000e+001 -9.750000e+001
      vertex -1.197071e+002  8.029289e+001 -9.750000e+001
    endloop
  endfacet
  facet normal -7.042420e-001 -7.099600e-001  1.552241e-004
    outer loop
      vertex -1.198156e+002  8.042136e+001 -2.078633e+000
      vertex -1.197071e+002  8.029289e+001 -9.750000e+001
      vertex -1.195722e+002  8.017989e+001 -2.320108e+000
    endloop
  endfacet
  facet normal -3.586179e-001 -9.334843e-001 -5.999887e-004
    outer loop
      vertex -1.195722e+002  8.017989e+001 -2.320108e+000
      vertex -1.197071e+002  8.029289e+001 -9.750000e+001
      vertex -1.191236e+002  8.000767e+001 -2.492330e+000
    endloop
  endfacet
  facet normal -3.826822e-001 -9.238800e-001 -4.233651e-004
    outer loop
      vertex -1.191236e+002  8.000767e+001 -2.492330e+000
      vertex -1.197071e+002  8.029289e+001 -9.750000e+001
      vertex -1.190000e+002  8.000000e+001 -9.750000e+001
    endloop
  endfacet
  facet normal -6.190658e-002 -9.980819e-001  0.000000e+000
    outer loop
      vertex -1.191236e+002  8.000767e+001 -2.492330e+000
      vertex -1.190000e+002  8.000000e+001 -9.750000e+001
      vertex -1.190000e+002  8.000000e+001 -2.500000e+000
    endloop
  endfacet
  facet normal -6.192768e-002  0.000000e+000 -9.980807e-001
    outer loop
      vertex -1.190000e+002  8.000000e+001 -2.500000e+000
      vertex -1.190000e+002  2.000000e+001 -2.500000e+000
      vertex -1.191236e+002  8.000767e+001 -2.492330e+000
    endloop
  endfacet
  facet normal -6.192767e-002  -0.000000e+000 -9.980806e-001
    outer loop
      vertex -1.191236e+002  8.000767e+001 -2.492330e+000
      vertex -1.190000e+002  2.000000e+001 -2.500000e+000
      vertex -1.191236e+002  1.999233e+001 -2.492330e+000
    endloop
  endfacet
  facet normal -3.584099e-001  0.000000e+000 -9.335643e-001
    outer loop
      vertex -1.191236e+002  8.000767e+001 -2.492330e+000
      vertex -1.191236e+002  1.999233e+001 -2.492330e+000
      vertex -1.195722e+002  8.017989e+001 -2.320108e+000
    endloop
  endfacet
  facet normal -3.584099e-001  -0.000000e+000 -9.335643e-001
    outer loop
      vertex -1.195722e+002  8.017989e+001 -2.320108e+000
      vertex -1.191236e+002  1.999233e+001 -2.492330e+000
      vertex -1.195722e+002  1.982011e+001 -2.320108e+000
    endloop
  endfacet
  facet normal -7.043267e-001  0.000000e+000 -7.098761e-001
    outer loop
      vertex -1.195722e+002  8.017989e+001 -2.320108e+000
      vertex -1.195722e+002  1.982011e+001 -2.320108e+000
      vertex -1.198156e+002  8.042136e+001 -2.078633e+000
    endloop
  endfacet
  facet normal -7.043204e-001  5.007146e-008 -7.098823e-001
    outer loop
      vertex -1.198156e+002  8.042136e+001 -2.078633e+000
      vertex -1.195722e+002  1.982011e+001 -2.320108e+000
      vertex -1.198156e+002  1.957863e+001 -2.078637e+000
    endloop
  endfacet
  facet normal -9.527831e-001  2.141803e-008 -3.036517e-001
    outer loop
      vertex -1.198156e+002  8.042136e+001 -2.078633e+000
      vertex -1.198156e+002  1.957863e+001 -2.078637e+000
      vertex -1.200000e+002  8.100000e+001 -1.500000e+000
    endloop
  endfacet
  facet normal -9.527837e-001  -0.000000e+000 -3.036496e-001
    outer loop
      vertex -1.200000e+002  8.100000e+001 -1.500000e+000
      vertex -1.198156e+002  1.957863e+001 -2.078637e+000
      vertex -1.200000e+002  1.900000e+001 -1.500000e+000
    endloop
  endfacet
  facet normal -9.238800e-001  3.826822e-001  0.000000e+000
    outer loop
      vertex -1.197071e+002  1.970711e+001 -9.750000e+001
      vertex -1.200000e+002  1.900000e+001 -9.750000e+001
      vertex -1.200000e+002  1.900000e+001 -1.500000e+000
    endloop
  endfacet
  facet normal -9.529781e-001  3.030386e-001 -6.754081e-004
    outer loop
      vertex -1.197071e+002  1.970711e+001 -9.750000e+001
      vertex -1.200000e+002  1.900000e+001 -1.500000e+000
      vertex -1.198156e+002  1.957863e+001 -2.078637e+000
    endloop
  endfacet
  facet normal -7.042505e-001  7.099516e-001  1.552317e-004
    outer loop
      vertex -1.197071e+002  1.970711e+001 -9.750000e+001
      vertex -1.198156e+002  1.957863e+001 -2.078637e+000
      vertex -1.195722e+002  1.982011e+001 -2.320108e+000
    endloop
  endfacet
  facet normal -3.586110e-001  9.334869e-001 -6.000205e-004
    outer loop
      vertex -1.197071e+002  1.970711e+001 -9.750000e+001
      vertex -1.195722e+002  1.982011e+001 -2.320108e+000
      vertex -1.191236e+002  1.999233e+001 -2.492330e+000
    endloop
  endfacet
  facet normal -6.208334e-002  9.980675e-001 -2.615019e-003
    outer loop
      vertex -1.197071e+002  1.970711e+001 -9.750000e+001
      vertex -1.191236e+002  1.999233e+001 -2.492330e+000
      vertex -1.190000e+002  2.000000e+001 -2.500000e+000
    endloop
  endfacet
  facet normal -3.826822e-001  9.238800e-001  0.000000e+000
    outer loop
      vertex -1.197071e+002  1.970711e+001 -9.750000e+001
      vertex -1.190000e+002  2.000000e+001 -2.500000e+000
      vertex -1.190000e+002  2.000000e+001 -9.750000e+001
    endloop
  endfacet
  facet normal  0.000000e+000 -1.000000e+000  0.000000e+000
    outer loop
      vertex  0.000000e+000  0.000000e+000  1.500000e+000
      vertex -1.190000e+002  0.000000e+000  1.500000e+000
      vertex  0.000000e+000  0.000000e+000 -1.500000e+000
    endloop
  endfacet
  facet normal  0.000000e+000 -1.000000e+000  0.000000e+000
    outer loop
      vertex  0.000000e+000  0.000000e+000 -1.500000e+000
      vertex -1.190000e+002  0.000000e+000  1.500000e+000
      vertex -1.010000e+002  0.000000e+000 -1.500000e+000
    endloop
  endfacet
  facet normal  0.000000e+000 -1.000000e+000  0.000000e+000
    outer loop
      vertex -1.190000e+002  0.000000e+000  1.500000e+000
      vertex -1.190000e+002  0.000000e+000 -9.750000e+001
      vertex -1.010000e+002  0.000000e+000 -1.500000e+000
    endloop
  endfacet
  facet normal  0.000000e+000 -1.000000e+000  -0.000000e+000
    outer loop
      vertex -1.010000e+002  0.000000e+000 -1.500000e+000
      vertex -1.190000e+002  0.000000e+000 -9.750000e+001
      vertex -1.010000e+002  0.000000e+000 -9.750000e+001
    endloop
  endfacet
  facet normal  0.000000e+000 -1.000000e+000  -0.000000e+000
    outer loop
      vertex  1.190000e+002  0.000000e+000 -9.750000e+001
      vertex  1.190000e+002  0.000000e+000  1.500000e+000
      vertex  1.010000e+002  0.000000e+000 -9.750000e+001
    endloop
  endfacet
  facet normal  0.000000e+000 -1.000000e+000  0.000000e+000
    outer loop
      vertex  1.010000e+002  0.000000e+000 -9.750000e+001
      vertex  1.190000e+002  0.000000e+000  1.500000e+000
      vertex  1.010000e+002  0.000000e+000 -1.500000e+000
    endloop
  endfacet
  facet normal  0.000000e+000 -1.000000e+000  0.000000e+000
    outer loop
      vertex  1.190000e+002  0.000000e+000  1.500000e+000
      vertex  0.000000e+000  0.000000e+000  1.500000e+000
      vertex  1.010000e+002  0.000000e+000 -1.500000e+000
    endloop
  endfacet
  facet normal  0.000000e+000 -1.000000e+000  0.000000e+000
    outer loop
      vertex  1.010000e+002  0.000000e+000 -1.500000e+000
      vertex  0.000000e+000  0.000000e+000  1.500000e+000
      vertex  0.000000e+000  0.000000e+000 -1.500000e+000
    endloop
  endfacet
  facet normal -1.000000e+000  0.000000e+000  0.000000e+000
    outer loop
      vertex  1.000000e+002  1.000000e+000 -9.750000e+001
      vertex  1.000000e+002  1.000000e+000 -2.500000e+000
      vertex  1.000000e+002  1.000000e+001 -9.750000e+001
    endloop
  endfacet
  facet normal -1.000000e+000  0.000000e+000  0.000000e+000
    outer loop
      vertex  1.000000e+002  1.000000e+001 -9.750000e+001
      vertex  1.000000e+002  1.000000e+000 -2.500000e+000
      vertex  1.000000e+002  1.000000e+001 -2.500000e+000
    endloop
  endfacet
  facet normal  1.000000e+000  0.000000e+000  0.000000e+000
    outer loop
      vertex -1.000000e+002  1.000000e+000 -9.750000e+001
      vertex -1.000000e+002  1.000000e+001 -9.750000e+001
      vertex -1.000000e+002  1.000000e+000 -2.500000e+000
    endloop
  endfacet
  facet normal  1.000000e+000  -0.000000e+000  0.000000e+000
    outer loop
      vertex -1.000000e+002  1.000000e+000 -2.500000e+000
      vertex -1.000000e+002  1.000000e+001 -9.750000e+001
      vertex -1.000000e+002  1.000000e+001 -2.500000e+000
    endloop
  endfacet
  facet normal  3.036527e-001 -9.527828e-001  0.000000e+000
    outer loop
      vertex -1.010000e+002  0.000000e+000 -1.500000e+000
      vertex -1.010000e+002  0.000000e+000 -9.750000e+001
      vertex -1.004214e+002  1.844119e-001 -2.078633e+000
    endloop
  endfacet
  facet normal  3.826830e-001 -9.238795e-001 -5.350993e-004
    outer loop
      vertex -1.004214e+002  1.844119e-001 -2.078633e+000
      vertex -1.010000e+002  0.000000e+000 -9.750000e+001
      vertex -1.002929e+002  2.928932e-001 -9.750000e+001
    endloop
  endfacet
  facet normal  7.099623e-001 -7.042397e-001  1.552372e-004
    outer loop
      vertex -1.004214e+002  1.844119e-001 -2.078633e+000
      vertex -1.002929e+002  2.928932e-001 -9.750000e+001
      vertex -1.001799e+002  4.277911e-001 -2.320108e+000
    endloop
  endfacet
  facet normal  9.334834e-001 -3.586200e-001 -5.999749e-004
    outer loop
      vertex -1.001799e+002  4.277911e-001 -2.320108e+000
      vertex -1.002929e+002  2.928932e-001 -9.750000e+001
      vertex -1.000077e+002  8.763812e-001 -2.492330e+000
    endloop
  endfacet
  facet normal  9.238798e-001 -3.826825e-001 -4.233644e-004
    outer loop
      vertex -1.000077e+002  8.763812e-001 -2.492330e+000
      vertex -1.002929e+002  2.928932e-001 -9.750000e+001
      vertex -1.000000e+002  1.000000e+000 -9.750000e+001
    endloop
  endfacet
  facet normal  9.980819e-001 -6.190673e-002  0.000000e+000
    outer loop
      vertex -1.000077e+002  8.763812e-001 -2.492330e+000
      vertex -1.000000e+002  1.000000e+000 -9.750000e+001
      vertex -1.000000e+002  1.000000e+000 -2.500000e+000
    endloop
  endfacet
  facet normal  0.000000e+000 -9.527829e-001 -3.036523e-001
    outer loop
      vertex  1.010000e+002  0.000000e+000 -1.500000e+000
      vertex  0.000000e+000  0.000000e+000 -1.500000e+000
      vertex  1.004214e+002  1.844119e-001 -2.078637e+000
    endloop
  endfacet
  facet normal -5.084625e-004 -9.238794e-001 -3.826834e-001
    outer loop
      vertex  1.004214e+002  1.844119e-001 -2.078637e+000
      vertex  0.000000e+000  0.000000e+000 -1.500000e+000
      vertex  0.000000e+000  2.928932e-001 -2.207107e+000
    endloop
  endfacet
  facet normal  1.474853e-004 -7.042443e-001 -7.099578e-001
    outer loop
      vertex  1.004214e+002  1.844119e-001 -2.078637e+000
      vertex  0.000000e+000  2.928932e-001 -2.207107e+000
      vertex  1.001799e+002  4.277911e-001 -2.320108e+000
    endloop
  endfacet
  facet normal -5.700810e-004 -3.586027e-001 -9.334901e-001
    outer loop
      vertex  1.001799e+002  4.277911e-001 -2.320108e+000
      vertex  0.000000e+000  2.928932e-001 -2.207107e+000
      vertex  1.000077e+002  8.763812e-001 -2.492330e+000
    endloop
  endfacet
  facet normal -4.021746e-004 -3.826834e-001 -9.238794e-001
    outer loop
      vertex  1.000077e+002  8.763812e-001 -2.492330e+000
      vertex  0.000000e+000  2.928932e-001 -2.207107e+000
      vertex -1.421085e-014  1.000000e+000 -2.500000e+000
    endloop
  endfacet
  facet normal  0.000000e+000 -6.192782e-002 -9.980806e-001
    outer loop
      vertex  1.000077e+002  8.763812e-001 -2.492330e+000
      vertex -1.421085e-014  1.000000e+000 -2.500000e+000
      vertex  1.000000e+002  1.000000e+000 -2.500000e+000
    endloop
  endfacet
  facet normal  -0.000000e+000 -9.238795e-001 -3.826834e-001
    outer loop
      vertex  0.000000e+000  2.928932e-001 -2.207107e+000
      vertex  0.000000e+000  0.000000e+000 -1.500000e+000
      vertex -1.010000e+002  0.000000e+000 -1.500000e+000
    endloop
  endfacet
  facet normal  6.417201e-004 -9.529675e-001 -3.030716e-001
    outer loop
      vertex  0.000000e+000  2.928932e-001 -2.207107e+000
      vertex -1.010000e+002  0.000000e+000 -1.500000e+000
      vertex -1.004214e+002  1.844119e-001 -2.078633e+000
    endloop
  endfacet
  facet normal -1.475009e-004 -7.042506e-001 -7.099516e-001
    outer loop
      vertex  0.000000e+000  2.928932e-001 -2.207107e+000
      vertex -1.004214e+002  1.844119e-001 -2.078633e+000
      vertex -1.001799e+002  4.277911e-001 -2.320108e+000
    endloop
  endfacet
  facet normal  5.700810e-004 -3.586027e-001 -9.334901e-001
    outer loop
      vertex  0.000000e+000  2.928932e-001 -2.207107e+000
      vertex -1.001799e+002  4.277911e-001 -2.320108e+000
      vertex -1.000077e+002  8.763812e-001 -2.492330e+000
    endloop
  endfacet
  facet normal  2.484293e-003 -6.208114e-002 -9.980680e-001
    outer loop
      vertex  0.000000e+000  2.928932e-001 -2.207107e+000
      vertex -1.000077e+002  8.763812e-001 -2.492330e+000
      vertex -1.000000e+002  1.000000e+000 -2.500000e+000
    endloop
  endfacet
  facet normal  0.000000e+000 -3.826834e-001 -9.238796e-001
    outer loop
      vertex  0.000000e+000  2.928932e-001 -2.207107e+000
      vertex -1.000000e+002  1.000000e+000 -2.500000e+000
      vertex -1.421085e-014  1.000000e+000 -2.500000e+000
    endloop
  endfacet
  facet normal -9.980819e-001 -6.190673e-002  0.000000e+000
    outer loop
      vertex  1.000000e+002  1.000000e+000 -2.500000e+000
      vertex  1.000000e+002  1.000000e+000 -9.750000e+001
      vertex  1.000077e+002  8.763812e-001 -2.492330e+000
    endloop
  endfacet
  facet normal -9.238798e-001 -3.826825e-001 -4.233644e-004
    outer loop
      vertex  1.000077e+002  8.763812e-001 -2.492330e+000
      vertex  1.000000e+002  1.000000e+000 -9.750000e+001
      vertex  1.002929e+002  2.928932e-001 -9.750000e+001
    endloop
  endfacet
  facet normal -9.334834e-001 -3.586200e-001 -5.999749e-004
    outer loop
      vertex  1.000077e+002  8.763812e-001 -2.492330e+000
      vertex  1.002929e+002  2.928932e-001 -9.750000e+001
      vertex  1.001799e+002  4.277911e-001 -2.320108e+000
    endloop
  endfacet
  facet normal -3.826831e-001 -9.238797e-001  -0.000000e+000
    outer loop
      vertex  1.010000e+002  0.000000e+000 -9.750000e+001
      vertex  1.010000e+002  0.000000e+000 -1.500000e+000
      vertex  1.002929e+002  2.928932e-001 -9.750000e+001
    endloop
  endfacet
  facet normal -3.030394e-001 -9.529777e-001 -6.754089e-004
    outer loop
      vertex  1.002929e+002  2.928932e-001 -9.750000e+001
      vertex  1.010000e+002  0.000000e+000 -1.500000e+000
      vertex  1.004214e+002  1.844119e-001 -2.078637e+000
    endloop
  endfacet
  facet normal -7.099623e-001 -7.042397e-001  1.552372e-004
    outer loop
      vertex  1.002929e+002  2.928932e-001 -9.750000e+001
      vertex  1.004214e+002  1.844119e-001 -2.078637e+000
      vertex  1.001799e+002  4.277911e-001 -2.320108e+000
    endloop
  endfacet
  facet normal  0.000000e+000 -9.238795e-001  3.826834e-001
    outer loop
      vertex  1.190000e+002  0.000000e+000  1.500000e+000
      vertex  1.190000e+002  2.928932e-001  2.207107e+000
      vertex  0.000000e+000  0.000000e+000  1.500000e+000
    endloop
  endfacet
  facet normal  0.000000e+000 -9.238795e-001  3.826834e-001
    outer loop
      vertex -1.190000e+002  0.000000e+000  1.500000e+000
      vertex  0.000000e+000  0.000000e+000  1.500000e+000
      vertex -1.190000e+002  2.928932e-001  2.207107e+000
    endloop
  endfacet
  facet normal  0.000000e+000 -9.238795e-001  3.826834e-001
    outer loop
      vertex -1.190000e+002  2.928932e-001  2.207107e+000
      vertex  0.000000e+000  0.000000e+000  1.500000e+000
      vertex  1.190000e+002  2.928932e-001  2.207107e+000
    endloop
  endfacet
  facet normal  0.000000e+000 -3.826834e-001  9.238796e-001
    outer loop
      vertex -1.190000e+002  2.928932e-001  2.207107e+000
      vertex  1.190000e+002  2.928932e-001  2.207107e+000
      vertex -1.190000e+002  1.000000e+000  2.500000e+000
    endloop
  endfacet
  facet normal  0.000000e+000 -3.826834e-001  9.238796e-001
    outer loop
      vertex -1.190000e+002  1.000000e+000  2.500000e+000
      vertex  1.190000e+002  2.928932e-001  2.207107e+000
      vertex  1.190000e+002  1.000000e+000  2.500000e+000
    endloop
  endfacet
  facet normal -9.238799e-001 -3.826826e-001  0.000000e+000
    outer loop
      vertex -1.200000e+002  1.000000e+000  1.500000e+000
      vertex -1.200000e+002  1.000000e+000 -9.750000e+001
      vertex -1.197071e+002  2.928932e-001  1.500000e+000
    endloop
  endfacet
  facet normal -9.238799e-001 -3.826826e-001  -0.000000e+000
    outer loop
      vertex -1.197071e+002  2.928932e-001  1.500000e+000
      vertex -1.200000e+002  1.000000e+000 -9.750000e+001
      vertex -1.197071e+002  2.928932e-001 -9.750000e+001
    endloop
  endfacet
  facet normal -3.826831e-001 -9.238797e-001  0.000000e+000
    outer loop
      vertex -1.197071e+002  2.928932e-001  1.500000e+000
      vertex -1.197071e+002  2.928932e-001 -9.750000e+001
      vertex -1.190000e+002  0.000000e+000  1.500000e+000
    endloop
  endfacet
  facet normal -3.826831e-001 -9.238797e-001  -0.000000e+000
    outer loop
      vertex -1.190000e+002  0.000000e+000  1.500000e+000
      vertex -1.197071e+002  2.928932e-001 -9.750000e+001
      vertex -1.190000e+002  0.000000e+000 -9.750000e+001
    endloop
  endfacet
  facet normal  3.826831e-001 -9.238797e-001  0.000000e+000
    outer loop
      vertex  1.190000e+002  0.000000e+000  1.500000e+000
      vertex  1.190000e+002  0.000000e+000 -9.750000e+001
      vertex  1.197071e+002  2.928932e-001  1.500000e+000
    endloop
  endfacet
  facet normal  3.826831e-001 -9.238797e-001  0.000000e+000
    outer loop
      vertex  1.197071e+002  2.928932e-001  1.500000e+000
      vertex  1.190000e+002  0.000000e+000 -9.750000e+001
      vertex  1.197071e+002  2.928932e-001 -9.750000e+001
    endloop
  endfacet
  facet normal  9.238799e-001 -3.826826e-001  0.000000e+000
    outer loop
      vertex  1.197071e+002  2.928932e-001  1.500000e+000
      vertex  1.197071e+002  2.928932e-001 -9.750000e+001
      vertex  1.200000e+002  1.000000e+000  1.500000e+000
    endloop
  endfacet
  facet normal  9.238799e-001 -3.826826e-001  0.000000e+000
    outer loop
      vertex  1.200000e+002  1.000000e+000  1.500000e+000
      vertex  1.197071e+002  2.928932e-001 -9.750000e+001
      vertex  1.200000e+002  1.000000e+000 -9.750000e+001
    endloop
  endfacet
  facet normal  1.565580e-001 -9.124869e-001  3.779644e-001
    outer loop
      vertex  1.190000e+002  0.000000e+000  1.500000e+000
      vertex  1.195000e+002  2.928932e-001  2.000000e+000
      vertex  1.190000e+002  2.928932e-001  2.207107e+000
    endloop
  endfacet
  facet normal  3.779641e-001 -9.124870e-001  1.565584e-001
    outer loop
      vertex  1.190000e+002  0.000000e+000  1.500000e+000
      vertex  1.197071e+002  2.928932e-001  1.500000e+000
      vertex  1.195000e+002  2.928932e-001  2.000000e+000
    endloop
  endfacet
  facet normal  8.628561e-001 -3.574058e-001  3.574080e-001
    outer loop
      vertex  1.197071e+002  2.928932e-001  1.500000e+000
      vertex  1.200000e+002  1.000000e+000  1.500000e+000
      vertex  1.195000e+002  2.928932e-001  2.000000e+000
    endloop
  endfacet
  facet normal  8.628563e-001 -3.574075e-001  3.574058e-001
    outer loop
      vertex  1.195000e+002  2.928932e-001  2.000000e+000
      vertex  1.200000e+002  1.000000e+000  1.500000e+000
      vertex  1.197071e+002  1.000000e+000  2.207107e+000
    endloop
  endfacet
  facet normal  3.574068e-001 -3.574072e-001  8.628561e-001
    outer loop
      vertex  1.195000e+002  2.928932e-001  2.000000e+000
      vertex  1.197071e+002  1.000000e+000  2.207107e+000
      vertex  1.190000e+002  2.928932e-001  2.207107e+000
    endloop
  endfacet
  facet normal  3.574063e-001 -3.574068e-001  8.628564e-001
    outer loop
      vertex  1.190000e+002  2.928932e-001  2.207107e+000
      vertex  1.197071e+002  1.000000e+000  2.207107e+000
      vertex  1.190000e+002  1.000000e+000  2.500000e+000
    endloop
  endfacet
  facet normal -3.779641e-001 -9.124870e-001  1.565584e-001
    outer loop
      vertex -1.190000e+002  0.000000e+000  1.500000e+000
      vertex -1.195000e+002  2.928932e-001  2.000000e+000
      vertex -1.197071e+002  2.928932e-001  1.500000e+000
    endloop
  endfacet
  facet normal -1.565580e-001 -9.124869e-001  3.779644e-001
    outer loop
      vertex -1.190000e+002  0.000000e+000  1.500000e+000
      vertex -1.190000e+002  2.928932e-001  2.207107e+000
      vertex -1.195000e+002  2.928932e-001  2.000000e+000
    endloop
  endfacet
  facet normal -3.574069e-001 -3.574067e-001  8.628562e-001
    outer loop
      vertex -1.190000e+002  2.928932e-001  2.207107e+000
      vertex -1.190000e+002  1.000000e+000  2.500000e+000
      vertex -1.195000e+002  2.928932e-001  2.000000e+000
    endloop
  endfacet
  facet normal -3.574063e-001 -3.574071e-001  8.628563e-001
    outer loop
      vertex -1.195000e+002  2.928932e-001  2.000000e+000
      vertex -1.190000e+002  1.000000e+000  2.500000e+000
      vertex -1.197071e+002  1.000000e+000  2.207107e+000
    endloop
  endfacet
  facet normal -8.628554e-001 -3.574077e-001  3.574077e-001
    outer loop
      vertex -1.195000e+002  2.928932e-001  2.000000e+000
      vertex -1.197071e+002  1.000000e+000  2.207107e+000
      vertex -1.197071e+002  2.928932e-001  1.500000e+000
    endloop
  endfacet
  facet normal -8.628567e-001 -3.574061e-001  3.574060e-001
    outer loop
      vertex -1.197071e+002  2.928932e-001  1.500000e+000
      vertex -1.197071e+002  1.000000e+000  2.207107e+000
      vertex -1.200000e+002  1.000000e+000  1.500000e+000
    endloop
  endfacet
  facet normal  -0.000000e+000  0.000000e+000 -1.000000e+000
    outer loop
      vertex -1.160000e+002  1.600000e+001 -1.025000e+002
      vertex -1.100000e+002  1.600000e+001 -1.025000e+002
      vertex -1.160000e+002  4.000000e+000 -1.025000e+002
    endloop
  endfacet
  facet normal  0.000000e+000  0.000000e+000 -1.000000e+000
    outer loop
      vertex -1.160000e+002  4.000000e+000 -1.025000e+002
      vertex -1.100000e+002  1.600000e+001 -1.025000e+002
      vertex -1.100000e+002  1.000000e+001 -1.025000e+002
    endloop
  endfacet
  facet normal  0.000000e+000  -0.000000e+000 -1.000000e+000
    outer loop
      vertex -1.160000e+002  4.000000e+000 -1.025000e+002
      vertex -1.100000e+002  1.000000e+001 -1.025000e+002
      vertex -1.040000e+002  4.000000e+000 -1.025000e+002
    endloop
  endfacet
  facet normal  0.000000e+000  0.000000e+000 -1.000000e+000
    outer loop
      vertex -1.040000e+002  4.000000e+000 -1.025000e+002
      vertex -1.100000e+002  1.000000e+001 -1.025000e+002
      vertex -1.040000e+002  1.000000e+001 -1.025000e+002
    endloop
  endfacet
  facet normal  0.000000e+000  0.000000e+000 -1.000000e+000
    outer loop
      vertex  1.040000e+002  4.000000e+000 -1.025000e+002
      vertex  1.040000e+002  1.000000e+001 -1.025000e+002
      vertex  1.160000e+002  4.000000e+000 -1.025000e+002
    endloop
  endfacet
  facet normal  0.000000e+000  0.000000e+000 -1.000000e+000
    outer loop
      vertex  1.160000e+002  4.000000e+000 -1.025000e+002
      vertex  1.040000e+002  1.000000e+001 -1.025000e+002
      vertex  1.100000e+002  1.000000e+001 -1.025000e+002
    endloop
  endfacet
  facet normal  0.000000e+000  0.000000e+000 -1.000000e+000
    outer loop
      vertex  1.160000e+002  4.000000e+000 -1.025000e+002
      vertex  1.100000e+002  1.000000e+001 -1.025000e+002
      vertex  1.160000e+002  1.600000e+001 -1.025000e+002
    endloop
  endfacet
  facet normal  -0.000000e+000  0.000000e+000 -1.000000e+000
    outer loop
      vertex  1.160000e+002  1.600000e+001 -1.025000e+002
      vertex  1.100000e+002  1.000000e+001 -1.025000e+002
      vertex  1.100000e+002  1.600000e+001 -1.025000e+002
    endloop
  endfacet
  facet normal  0.000000e+000  0.000000e+000 -1.000000e+000
    outer loop
      vertex -1.100000e+002  8.400000e+001 -1.025000e+002
      vertex -1.160000e+002  8.400000e+001 -1.025000e+002
      vertex -1.100000e+002  9.000000e+001 -1.025000e+002
    endloop
  endfacet
  facet normal  -0.000000e+000  0.000000e+000 -1.000000e+000
    outer loop
      vertex -1.100000e+002  9.000000e+001 -1.025000e+002
      vertex -1.160000e+002  8.400000e+001 -1.025000e+002
      vertex -1.160000e+002  9.600000e+001 -1.025000e+002
    endloop
  endfacet
  facet normal  0.000000e+000  0.000000e+000 -1.000000e+000
    outer loop
      vertex -1.100000e+002  9.000000e+001 -1.025000e+002
      vertex -1.160000e+002  9.600000e+001 -1.025000e+002
      vertex -1.040000e+002  9.000000e+001 -1.025000e+002
    endloop
  endfacet
  facet normal  0.000000e+000  0.000000e+000 -1.000000e+000
    outer loop
      vertex -1.040000e+002  9.000000e+001 -1.025000e+002
      vertex -1.160000e+002  9.600000e+001 -1.025000e+002
      vertex -1.040000e+002  9.600000e+001 -1.025000e+002
    endloop
  endfacet
  facet normal  0.000000e+000  0.000000e+000 -1.000000e+000
    outer loop
      vertex  1.160000e+002  8.400000e+001 -1.025000e+002
      vertex  1.100000e+002  8.400000e+001 -1.025000e+002
      vertex  1.160000e+002  9.600000e+001 -1.025000e+002
    endloop
  endfacet
  facet normal  0.000000e+000  0.000000e+000 -1.000000e+000
    outer loop
      vertex  1.160000e+002  9.600000e+001 -1.025000e+002
      vertex  1.100000e+002  8.400000e+001 -1.025000e+002
      vertex  1.100000e+002  9.000000e+001 -1.025000e+002
    endloop
  endfacet
  facet normal  0.000000e+000  0.000000e+000 -1.000000e+000
    outer loop
      vertex  1.160000e+002  9.600000e+001 -1.025000e+002
      vertex  1.100000e+002  9.000000e+001 -1.025000e+002
      vertex  1.040000e+002  9.600000e+001 -1.025000e+002
    endloop
  endfacet
  facet normal  0.000000e+000  0.000000e+000 -1.000000e+000
    outer loop
      vertex  1.040000e+002  9.600000e+001 -1.025000e+002
      vertex  1.100000e+002  9.000000e+001 -1.025000e+002
      vertex  1.040000e+002  9.000000e+001 -1.025000e+002
    endloop
  endfacet
  facet normal  0.000000e+000  1.000000e+000  0.000000e+000
    outer loop
      vertex -1.100000e+002  1.000000e+001 -1.025000e+002
      vertex -1.100000e+002  1.000000e+001 -2.500000e+000
      vertex -1.040000e+002  1.000000e+001 -1.025000e+002
    endloop
  endfacet
  facet normal  0.000000e+000  1.000000e+000  -0.000000e+000
    outer loop
      vertex -1.040000e+002  1.000000e+001 -1.025000e+002
      vertex -1.100000e+002  1.000000e+001 -2.500000e+000
      vertex -1.040000e+002  1.000000e+001 -9.750000e+001
    endloop
  endfacet
  facet normal  0.000000e+000  9.999999e-001  0.000000e+000
    outer loop
      vertex -1.100000e+002  1.000000e+001 -2.500000e+000
      vertex -1.000000e+002  1.000000e+001 -2.500000e+000
      vertex -1.040000e+002  1.000000e+001 -9.750000e+001
    endloop
  endfacet
  facet normal  0.000000e+000  1.000000e+000  0.000000e+000
    outer loop
      vertex -1.040000e+002  1.000000e+001 -9.750000e+001
      vertex -1.000000e+002  1.000000e+001 -2.500000e+000
      vertex -1.000000e+002  1.000000e+001 -9.750000e+001
    endloop
  endfacet
  facet normal -1.000000e+000  0.000000e+000  0.000000e+000
    outer loop
      vertex  1.100000e+002  9.000000e+001 -1.025000e+002
      vertex  1.100000e+002  8.400000e+001 -1.025000e+002
      vertex  1.100000e+002  9.000000e+001 -2.500000e+000
    endloop
  endfacet
  facet normal -1.000000e+000  0.000000e+000  0.000000e+000
    outer loop
      vertex  1.100000e+002  9.000000e+001 -2.500000e+000
      vertex  1.100000e+002  8.400000e+001 -1.025000e+002
      vertex  1.100000e+002  8.400000e+001 -9.750000e+001
    endloop
  endfacet
  facet normal -9.999999e-001  0.000000e+000  0.000000e+000
    outer loop
      vertex  1.100000e+002  9.000000e+001 -2.500000e+000
      vertex  1.100000e+002  8.400000e+001 -9.750000e+001
      vertex  1.100000e+002  8.000000e+001 -2.500000e+000
    endloop
  endfacet
  facet normal -1.000000e+000  0.000000e+000  0.000000e+000
    outer loop
      vertex  1.100000e+002  8.000000e+001 -2.500000e+000
      vertex  1.100000e+002  8.400000e+001 -9.750000e+001
      vertex  1.100000e+002  8.000000e+001 -9.750000e+001
    endloop
  endfacet
  facet normal  0.000000e+000 -1.000000e+000  -0.000000e+000
    outer loop
      vertex  1.100000e+002  9.000000e+001 -1.025000e+002
      vertex  1.100000e+002  9.000000e+001 -2.500000e+000
      vertex  1.040000e+002  9.000000e+001 -1.025000e+002
    endloop
  endfacet
  facet normal  0.000000e+000 -1.000000e+000  0.000000e+000
    outer loop
      vertex  1.040000e+002  9.000000e+001 -1.025000e+002
      vertex  1.100000e+002  9.000000e+001 -2.500000e+000
      vertex  1.040000e+002  9.000000e+001 -9.750000e+001
    endloop
  endfacet
  facet normal  0.000000e+000 -9.999999e-001  0.000000e+000
    outer loop
      vertex  1.100000e+002  9.000000e+001 -2.500000e+000
      vertex  1.000000e+002  9.000000e+001 -2.500000e+000
      vertex  1.040000e+002  9.000000e+001 -9.750000e+001
    endloop
  endfacet
  facet normal  0.000000e+000 -1.000000e+000  0.000000e+000
    outer loop
      vertex  1.040000e+002  9.000000e+001 -9.750000e+001
      vertex  1.000000e+002  9.000000e+001 -2.500000e+000
      vertex  1.000000e+002  9.000000e+001 -9.750000e+001
    endloop
  endfacet
  facet normal  0.000000e+000 -9.999999e-001  0.000000e+000
    outer loop
      vertex -1.000000e+002  9.000000e+001 -2.500000e+000
      vertex -1.100000e+002  9.000000e+001 -2.500000e+000
      vertex -1.000000e+002  9.000000e+001 -9.750000e+001
    endloop
  endfacet
  facet normal  0.000000e+000 -1.000000e+000  0.000000e+000
    outer loop
      vertex -1.000000e+002  9.000000e+001 -9.750000e+001
      vertex -1.100000e+002  9.000000e+001 -2.500000e+000
      vertex -1.040000e+002  9.000000e+001 -9.750000e+001
    endloop
  endfacet
  facet normal  0.000000e+000 -1.000000e+000  0.000000e+000
    outer loop
      vertex -1.100000e+002  9.000000e+001 -2.500000e+000
      vertex -1.100000e+002  9.000000e+001 -1.025000e+002
      vertex -1.040000e+002  9.000000e+001 -9.750000e+001
    endloop
  endfacet
  facet normal  0.000000e+000 -1.000000e+000  -0.000000e+000
    outer loop
      vertex -1.040000e+002  9.000000e+001 -9.750000e+001
      vertex -1.100000e+002  9.000000e+001 -1.025000e+002
      vertex -1.040000e+002  9.000000e+001 -1.025000e+002
    endloop
  endfacet
  facet normal  1.000000e+000  0.000000e+000  0.000000e+000
    outer loop
      vertex -1.100000e+002  9.000000e+001 -1.025000e+002
      vertex -1.100000e+002  9.000000e+001 -2.500000e+000
      vertex -1.100000e+002  8.400000e+001 -1.025000e+002
    endloop
  endfacet
  facet normal  1.000000e+000  0.000000e+000  0.000000e+000
    outer loop
      vertex -1.100000e+002  8.400000e+001 -1.025000e+002
      vertex -1.100000e+002  9.000000e+001 -2.500000e+000
      vertex -1.100000e+002  8.400000e+001 -9.750000e+001
    endloop
  endfacet
  facet normal  9.999999e-001  -0.000000e+000  0.000000e+000
    outer loop
      vertex -1.100000e+002  9.000000e+001 -2.500000e+000
      vertex -1.100000e+002  8.000000e+001 -2.500000e+000
      vertex -1.100000e+002  8.400000e+001 -9.750000e+001
    endloop
  endfacet
  facet normal  1.000000e+000  0.000000e+000  0.000000e+000
    outer loop
      vertex -1.100000e+002  8.400000e+001 -9.750000e+001
      vertex -1.100000e+002  8.000000e+001 -2.500000e+000
      vertex -1.100000e+002  8.000000e+001 -9.750000e+001
    endloop
  endfacet
  facet normal  0.000000e+000  9.999999e-001  0.000000e+000
    outer loop
      vertex  1.000000e+002  1.000000e+001 -2.500000e+000
      vertex  1.100000e+002  1.000000e+001 -2.500000e+000
      vertex  1.000000e+002  1.000000e+001 -9.750000e+001
    endloop
  endfacet
  facet normal  0.000000e+000  1.000000e+000  0.000000e+000
    outer loop
      vertex  1.000000e+002  1.000000e+001 -9.750000e+001
      vertex  1.100000e+002  1.000000e+001 -2.500000e+000
      vertex  1.040000e+002  1.000000e+001 -9.750000e+001
    endloop
  endfacet
  facet normal  0.000000e+000  1.000000e+000  -0.000000e+000
    outer loop
      vertex  1.100000e+002  1.000000e+001 -2.500000e+000
      vertex  1.100000e+002  1.000000e+001 -1.025000e+002
      vertex  1.040000e+002  1.000000e+001 -9.750000e+001
    endloop
  endfacet
  facet normal  0.000000e+000  1.000000e+000  0.000000e+000
    outer loop
      vertex  1.040000e+002  1.000000e+001 -9.750000e+001
      vertex  1.100000e+002  1.000000e+001 -1.025000e+002
      vertex  1.040000e+002  1.000000e+001 -1.025000e+002
    endloop
  endfacet
  facet normal -9.999999e-001  -0.000000e+000  -0.000000e+000
    outer loop
      vertex  1.100000e+002  1.000000e+001 -2.500000e+000
      vertex  1.100000e+002  2.000000e+001 -2.500000e+000
      vertex  1.100000e+002  2.000000e+001 -9.750000e+001
    endloop
  endfacet
  facet normal -1.000000e+000  0.000000e+000  0.000000e+000
    outer loop
      vertex  1.100000e+002  1.000000e+001 -2.500000e+000
      vertex  1.100000e+002  2.000000e+001 -9.750000e+001
      vertex  1.100000e+002  1.600000e+001 -9.750000e+001
    endloop
  endfacet
  facet normal -1.000000e+000  -0.000000e+000  -0.000000e+000
    outer loop
      vertex  1.100000e+002  1.000000e+001 -2.500000e+000
      vertex  1.100000e+002  1.600000e+001 -9.750000e+001
      vertex  1.100000e+002  1.600000e+001 -1.025000e+002
    endloop
  endfacet
  facet normal -1.000000e+000  0.000000e+000  0.000000e+000
    outer loop
      vertex  1.100000e+002  1.000000e+001 -2.500000e+000
      vertex  1.100000e+002  1.600000e+001 -1.025000e+002
      vertex  1.100000e+002  1.000000e+001 -1.025000e+002
    endloop
  endfacet
  facet normal  1.000000e+000  0.000000e+000  0.000000e+000
    outer loop
      vertex -1.100000e+002  1.000000e+001 -2.500000e+000
      vertex -1.100000e+002  1.000000e+001 -1.025000e+002
      vertex -1.100000e+002  1.600000e+001 -1.025000e+002
    endloop
  endfacet
  facet normal  1.000000e+000  0.000000e+000  -0.000000e+000
    outer loop
      vertex -1.100000e+002  1.000000e+001 -2.500000e+000
      vertex -1.100000e+002  1.600000e+001 -1.025000e+002
      vertex -1.100000e+002  1.600000e+001 -9.750000e+001
    endloop
  endfacet
  facet normal  1.000000e+000  0.000000e+000  -0.000000e+000
    outer loop
      vertex -1.100000e+002  1.000000e+001 -2.500000e+000
      vertex -1.100000e+002  1.600000e+001 -9.750000e+001
      vertex -1.100000e+002  2.000000e+001 -9.750000e+001
    endloop
  endfacet
  facet normal  9.999999e-001  0.000000e+000  -0.000000e+000
    outer loop
      vertex -1.100000e+002  1.000000e+001 -2.500000e+000
      vertex -1.100000e+002  2.000000e+001 -9.750000e+001
      vertex -1.100000e+002  2.000000e+001 -2.500000e+000
    endloop
  endfacet
  facet normal  1.000000e+000  0.000000e+000  0.000000e+000
    outer loop
      vertex -1.040000e+002  4.000000e+000 -1.025000e+002
      vertex -1.040000e+002  1.000000e+001 -1.025000e+002
      vertex -1.040000e+002  4.000000e+000 -9.750000e+001
    endloop
  endfacet
  facet normal  1.000000e+000  -0.000000e+000  0.000000e+000
    outer loop
      vertex -1.040000e+002  4.000000e+000 -9.750000e+001
      vertex -1.040000e+002  1.000000e+001 -1.025000e+002
      vertex -1.040000e+002  1.000000e+001 -9.750000e+001
    endloop
  endfacet
  facet normal  0.000000e+000  1.000000e+000  0.000000e+000
    outer loop
      vertex -1.160000e+002  1.600000e+001 -1.025000e+002
      vertex -1.160000e+002  1.600000e+001 -9.750000e+001
      vertex -1.100000e+002  1.600000e+001 -1.025000e+002
    endloop
  endfacet
  facet normal  0.000000e+000  1.000000e+000  -0.000000e+000
    outer loop
      vertex -1.100000e+002  1.600000e+001 -1.025000e+002
      vertex -1.160000e+002  1.600000e+001 -9.750000e+001
      vertex -1.100000e+002  1.600000e+001 -9.750000e+001
    endloop
  endfacet
  facet normal  0.000000e+000  1.000000e+000  0.000000e+000
    outer loop
      vertex  1.100000e+002  1.600000e+001 -1.025000e+002
      vertex  1.100000e+002  1.600000e+001 -9.750000e+001
      vertex  1.160000e+002  1.600000e+001 -1.025000e+002
    endloop
  endfacet
  facet normal  0.000000e+000  1.000000e+000  -0.000000e+000
    outer loop
      vertex  1.160000e+002  1.600000e+001 -1.025000e+002
      vertex  1.100000e+002  1.600000e+001 -9.750000e+001
      vertex  1.160000e+002  1.600000e+001 -9.750000e+001
    endloop
  endfacet
  facet normal -1.000000e+000  0.000000e+000  0.000000e+000
    outer loop
      vertex  1.040000e+002  1.000000e+001 -1.025000e+002
      vertex  1.040000e+002  4.000000e+000 -1.025000e+002
      vertex  1.040000e+002  1.000000e+001 -9.750000e+001
    endloop
  endfacet
  facet normal -1.000000e+000  -0.000000e+000  0.000000e+000
    outer loop
      vertex  1.040000e+002  1.000000e+001 -9.750000e+001
      vertex  1.040000e+002  4.000000e+000 -1.025000e+002
      vertex  1.040000e+002  4.000000e+000 -9.750000e+001
    endloop
  endfacet
  facet normal  0.000000e+000 -1.000000e+000  0.000000e+000
    outer loop
      vertex -1.160000e+002  8.400000e+001 -1.025000e+002
      vertex -1.100000e+002  8.400000e+001 -1.025000e+002
      vertex -1.160000e+002  8.400000e+001 -9.750000e+001
    endloop
  endfacet
  facet normal  0.000000e+000 -1.000000e+000  0.000000e+000
    outer loop
      vertex -1.160000e+002  8.400000e+001 -9.750000e+001
      vertex -1.100000e+002  8.400000e+001 -1.025000e+002
      vertex -1.100000e+002  8.400000e+001 -9.750000e+001
    endloop
  endfacet
  facet normal  1.000000e+000  0.000000e+000  0.000000e+000
    outer loop
      vertex -1.040000e+002  9.000000e+001 -1.025000e+002
      vertex -1.040000e+002  9.600000e+001 -1.025000e+002
      vertex -1.040000e+002  9.000000e+001 -9.750000e+001
    endloop
  endfacet
  facet normal  1.000000e+000  -0.000000e+000  0.000000e+000
    outer loop
      vertex -1.040000e+002  9.000000e+001 -9.750000e+001
      vertex -1.040000e+002  9.600000e+001 -1.025000e+002
      vertex -1.040000e+002  9.600000e+001 -9.750000e+001
    endloop
  endfacet
  facet normal -1.000000e+000  0.000000e+000  0.000000e+000
    outer loop
      vertex  1.040000e+002  9.600000e+001 -1.025000e+002
      vertex  1.040000e+002  9.000000e+001 -1.025000e+002
      vertex  1.040000e+002  9.600000e+001 -9.750000e+001
    endloop
  endfacet
  facet normal -1.000000e+000  -0.000000e+000  0.000000e+000
    outer loop
      vertex  1.040000e+002  9.600000e+001 -9.750000e+001
      vertex  1.040000e+002  9.000000e+001 -1.025000e+002
      vertex  1.040000e+002  9.000000e+001 -9.750000e+001
    endloop
  endfacet
  facet normal  0.000000e+000 -1.000000e+000  0.000000e+000
    outer loop
      vertex  1.100000e+002  8.400000e+001 -1.025000e+002
      vertex  1.160000e+002  8.400000e+001 -1.025000e+002
      vertex  1.100000e+002  8.400000e+001 -9.750000e+001
    endloop
  endfacet
  facet normal  0.000000e+000 -1.000000e+000  0.000000e+000
    outer loop
      vertex  1.100000e+002  8.400000e+001 -9.750000e+001
      vertex  1.160000e+002  8.400000e+001 -1.025000e+002
      vertex  1.160000e+002  8.400000e+001 -9.750000e+001
    endloop
  endfacet
  facet normal -1.000000e+000  0.000000e+000  0.000000e+000
    outer loop
      vertex -1.160000e+002  9.600000e+001 -1.025000e+002
      vertex -1.160000e+002  8.400000e+001 -1.025000e+002
      vertex -1.160000e+002  9.600000e+001 -9.750000e+001
    endloop
  endfacet
  facet normal -1.000000e+000  -0.000000e+000  0.000000e+000
    outer loop
      vertex -1.160000e+002  9.600000e+001 -9.750000e+001
      vertex -1.160000e+002  8.400000e+001 -1.025000e+002
      vertex -1.160000e+002  8.400000e+001 -9.750000e+001
    endloop
  endfacet
  facet normal  0.000000e+000  1.000000e+000  0.000000e+000
    outer loop
      vertex -1.040000e+002  9.600000e+001 -1.025000e+002
      vertex -1.160000e+002  9.600000e+001 -1.025000e+002
      vertex -1.040000e+002  9.600000e+001 -9.750000e+001
    endloop
  endfacet
  facet normal  0.000000e+000  1.000000e+000  0.000000e+000
    outer loop
      vertex -1.040000e+002  9.600000e+001 -9.750000e+001
      vertex -1.160000e+002  9.600000e+001 -1.025000e+002
      vertex -1.160000e+002  9.600000e+001 -9.750000e+001
    endloop
  endfacet
  facet normal  0.000000e+000 -1.000000e+000  -0.000000e+000
    outer loop
      vertex -1.040000e+002  4.000000e+000 -1.025000e+002
      vertex -1.040000e+002  4.000000e+000 -9.750000e+001
      vertex -1.160000e+002  4.000000e+000 -1.025000e+002
    endloop
  endfacet
  facet normal  0.000000e+000 -1.000000e+000  0.000000e+000
    outer loop
      vertex -1.160000e+002  4.000000e+000 -1.025000e+002
      vertex -1.040000e+002  4.000000e+000 -9.750000e+001
      vertex -1.160000e+002  4.000000e+000 -9.750000e+001
    endloop
  endfacet
  facet normal -1.000000e+000  0.000000e+000  0.000000e+000
    outer loop
      vertex -1.160000e+002  1.600000e+001 -1.025000e+002
      vertex -1.160000e+002  4.000000e+000 -1.025000e+002
      vertex -1.160000e+002  1.600000e+001 -9.750000e+001
    endloop
  endfacet
  facet normal -1.000000e+000  -0.000000e+000  0.000000e+000
    outer loop
      vertex -1.160000e+002  1.600000e+001 -9.750000e+001
      vertex -1.160000e+002  4.000000e+000 -1.025000e+002
      vertex -1.160000e+002  4.000000e+000 -9.750000e+001
    endloop
  endfacet
  facet normal  1.000000e+000  0.000000e+000  0.000000e+000
    outer loop
      vertex  1.160000e+002  4.000000e+000 -1.025000e+002
      vertex  1.160000e+002  1.600000e+001 -1.025000e+002
      vertex  1.160000e+002  4.000000e+000 -9.750000e+001
    endloop
  endfacet
  facet normal  1.000000e+000  -0.000000e+000  0.000000e+000
    outer loop
      vertex  1.160000e+002  4.000000e+000 -9.750000e+001
      vertex  1.160000e+002  1.600000e+001 -1.025000e+002
      vertex  1.160000e+002  1.600000e+001 -9.750000e+001
    endloop
  endfacet
  facet normal  0.000000e+000 -1.000000e+000  -0.000000e+000
    outer loop
      vertex  1.160000e+002  4.000000e+000 -1.025000e+002
      vertex  1.160000e+002  4.000000e+000 -9.750000e+001
      vertex  1.040000e+002  4.000000e+000 -1.025000e+002
    endloop
  endfacet
  facet normal  0.000000e+000 -1.000000e+000  0.000000e+000
    outer loop
      vertex  1.040000e+002  4.000000e+000 -1.025000e+002
      vertex  1.160000e+002  4.000000e+000 -9.750000e+001
      vertex  1.040000e+002  4.000000e+000 -9.750000e+001
    endloop
  endfacet
  facet normal  0.000000e+000  1.000000e+000  0.000000e+000
    outer loop
      vertex  1.160000e+002  9.600000e+001 -1.025000e+002
      vertex  1.040000e+002  9.600000e+001 -1.025000e+002
      vertex  1.160000e+002  9.600000e+001 -9.750000e+001
    endloop
  endfacet
  facet normal  0.000000e+000  1.000000e+000  0.000000e+000
    outer loop
      vertex  1.160000e+002  9.600000e+001 -9.750000e+001
      vertex  1.040000e+002  9.600000e+001 -1.025000e+002
      vertex  1.040000e+002  9.600000e+001 -9.750000e+001
    endloop
  endfacet
  facet normal  1.000000e+000  0.000000e+000  0.000000e+000
    outer loop
      vertex  1.160000e+002  8.400000e+001 -1.025000e+002
      vertex  1.160000e+002  9.600000e+001 -1.025000e+002
      vertex  1.160000e+002  8.400000e+001 -9.750000e+001
    endloop
  endfacet
  facet normal  1.000000e+000  -0.000000e+000  0.000000e+000
    outer loop
      vertex  1.160000e+002  8.400000e+001 -9.750000e+001
      vertex  1.160000e+002  9.600000e+001 -1.025000e+002
      vertex  1.160000e+002  9.600000e+001 -9.750000e+001
    endloop
  endfacet
endsolid CATIA STL
