solid CATIA STL
  facet normal  0.000000e+000  0.000000e+000  1.000000e+000
    outer loop
      vertex  1.098000e+002  8.380000e+001 -9.750000e+001
      vertex  1.098000e+002  8.980000e+001 -9.750000e+001
      vertex  1.038000e+002  8.980000e+001 -9.750000e+001
    endloop
  endfacet
  facet normal  0.000000e+000  0.000000e+000  1.000000e+000
    outer loop
      vertex  1.098000e+002  8.380000e+001 -9.750000e+001
      vertex  1.038000e+002  8.980000e+001 -9.750000e+001
      vertex -1.038000e+002  8.980000e+001 -9.750000e+001
    endloop
  endfacet
  facet normal  0.000000e+000  0.000000e+000  1.000000e+000
    outer loop
      vertex  1.098000e+002  8.380000e+001 -9.750000e+001
      vertex -1.038000e+002  8.980000e+001 -9.750000e+001
      vertex -1.098000e+002  8.980000e+001 -9.750000e+001
    endloop
  endfacet
  facet normal  0.000000e+000  0.000000e+000  1.000000e+000
    outer loop
      vertex  1.098000e+002  8.380000e+001 -9.750000e+001
      vertex -1.098000e+002  8.980000e+001 -9.750000e+001
      vertex -1.098000e+002  8.380000e+001 -9.750000e+001
    endloop
  endfacet
  facet normal  0.000000e+000  0.000000e+000  1.000000e+000
    outer loop
      vertex -1.098000e+002  1.620000e+001 -9.750000e+001
      vertex -1.098000e+002  1.020000e+001 -9.750000e+001
      vertex  1.098000e+002  1.620000e+001 -9.750000e+001
    endloop
  endfacet
  facet normal  0.000000e+000  -0.000000e+000  9.999999e-001
    outer loop
      vertex -1.098000e+002  1.620000e+001 -9.750000e+001
      vertex  1.098000e+002  1.620000e+001 -9.750000e+001
      vertex  1.098000e+002  8.380000e+001 -9.750000e+001
    endloop
  endfacet
  facet normal  0.000000e+000  0.000000e+000  9.999999e-001
    outer loop
      vertex -1.098000e+002  1.620000e+001 -9.750000e+001
      vertex  1.098000e+002  8.380000e+001 -9.750000e+001
      vertex -1.098000e+002  8.380000e+001 -9.750000e+001
    endloop
  endfacet
  facet normal  0.000000e+000  0.000000e+000  1.000000e+000
    outer loop
      vertex -1.098000e+002  1.620000e+001 -9.750000e+001
      vertex -1.098000e+002  8.380000e+001 -9.750000e+001
      vertex -1.162000e+002  8.380000e+001 -9.750000e+001
    endloop
  endfacet
  facet normal  0.000000e+000  0.000000e+000  1.000000e+000
    outer loop
      vertex -1.098000e+002  1.620000e+001 -9.750000e+001
      vertex -1.162000e+002  8.380000e+001 -9.750000e+001
      vertex -1.162000e+002  1.620000e+001 -9.750000e+001
    endloop
  endfacet
  facet normal  -0.000000e+000  0.000000e+000  9.999999e-001
    outer loop
      vertex  1.200000e+002  1.000000e+002 -9.750000e+001
      vertex -1.421085e-014  1.000000e+002 -9.750000e+001
      vertex  1.038000e+002  9.620000e+001 -9.750000e+001
    endloop
  endfacet
  facet normal  0.000000e+000  0.000000e+000  1.000000e+000
    outer loop
      vertex  1.200000e+002  1.000000e+002 -9.750000e+001
      vertex  1.038000e+002  9.620000e+001 -9.750000e+001
      vertex  1.162000e+002  9.620000e+001 -9.750000e+001
    endloop
  endfacet
  facet normal  -0.000000e+000  0.000000e+000  1.000000e+000
    outer loop
      vertex  1.200000e+002  1.000000e+002 -9.750000e+001
      vertex  1.162000e+002  9.620000e+001 -9.750000e+001
      vertex  1.162000e+002  8.380000e+001 -9.750000e+001
    endloop
  endfacet
  facet normal  -0.000000e+000  0.000000e+000  1.000000e+000
    outer loop
      vertex  1.200000e+002  1.000000e+002 -9.750000e+001
      vertex  1.162000e+002  8.380000e+001 -9.750000e+001
      vertex  1.162000e+002  1.620000e+001 -9.750000e+001
    endloop
  endfacet
  facet normal  -0.000000e+000  0.000000e+000  1.000000e+000
    outer loop
      vertex  1.200000e+002  1.000000e+002 -9.750000e+001
      vertex  1.162000e+002  1.620000e+001 -9.750000e+001
      vertex  1.162000e+002  3.800000e+000 -9.750000e+001
    endloop
  endfacet
  facet normal  -0.000000e+000  0.000000e+000  9.999999e-001
    outer loop
      vertex  1.200000e+002  1.000000e+002 -9.750000e+001
      vertex  1.162000e+002  3.800000e+000 -9.750000e+001
      vertex  1.200000e+002 -1.243450e-014 -9.750000e+001
    endloop
  endfacet
  facet normal  0.000000e+000  0.000000e+000  9.999999e-001
    outer loop
      vertex -1.200000e+002  1.000000e+002 -9.750000e+001
      vertex -1.200000e+002 -1.421085e-014 -9.750000e+001
      vertex -1.162000e+002  3.800000e+000 -9.750000e+001
    endloop
  endfacet
  facet normal  0.000000e+000  -0.000000e+000  1.000000e+000
    outer loop
      vertex -1.200000e+002  1.000000e+002 -9.750000e+001
      vertex -1.162000e+002  3.800000e+000 -9.750000e+001
      vertex -1.162000e+002  1.620000e+001 -9.750000e+001
    endloop
  endfacet
  facet normal  0.000000e+000  -0.000000e+000  1.000000e+000
    outer loop
      vertex -1.200000e+002  1.000000e+002 -9.750000e+001
      vertex -1.162000e+002  1.620000e+001 -9.750000e+001
      vertex -1.162000e+002  8.380000e+001 -9.750000e+001
    endloop
  endfacet
  facet normal  0.000000e+000  -0.000000e+000  1.000000e+000
    outer loop
      vertex -1.200000e+002  1.000000e+002 -9.750000e+001
      vertex -1.162000e+002  8.380000e+001 -9.750000e+001
      vertex -1.162000e+002  9.620000e+001 -9.750000e+001
    endloop
  endfacet
  facet normal  0.000000e+000  -0.000000e+000  1.000000e+000
    outer loop
      vertex -1.200000e+002  1.000000e+002 -9.750000e+001
      vertex -1.162000e+002  9.620000e+001 -9.750000e+001
      vertex -1.038000e+002  9.620000e+001 -9.750000e+001
    endloop
  endfacet
  facet normal  0.000000e+000  -0.000000e+000  9.999999e-001
    outer loop
      vertex -1.200000e+002  1.000000e+002 -9.750000e+001
      vertex -1.038000e+002  9.620000e+001 -9.750000e+001
      vertex -1.421085e-014  1.000000e+002 -9.750000e+001
    endloop
  endfacet
  facet normal  0.000000e+000  0.000000e+000  1.000000e+000
    outer loop
      vertex  1.098000e+002  1.620000e+001 -9.750000e+001
      vertex -1.098000e+002  1.020000e+001 -9.750000e+001
      vertex -1.038000e+002  1.020000e+001 -9.750000e+001
    endloop
  endfacet
  facet normal  0.000000e+000  0.000000e+000  1.000000e+000
    outer loop
      vertex  1.098000e+002  1.620000e+001 -9.750000e+001
      vertex -1.038000e+002  1.020000e+001 -9.750000e+001
      vertex  1.038000e+002  1.020000e+001 -9.750000e+001
    endloop
  endfacet
  facet normal  0.000000e+000  0.000000e+000  1.000000e+000
    outer loop
      vertex  1.098000e+002  1.620000e+001 -9.750000e+001
      vertex  1.038000e+002  1.020000e+001 -9.750000e+001
      vertex  1.098000e+002  1.020000e+001 -9.750000e+001
    endloop
  endfacet
  facet normal  0.000000e+000  0.000000e+000  1.000000e+000
    outer loop
      vertex  1.200000e+002 -1.243450e-014 -9.750000e+001
      vertex  1.162000e+002  3.800000e+000 -9.750000e+001
      vertex -1.421085e-014 -1.243450e-014 -9.750000e+001
    endloop
  endfacet
  facet normal  0.000000e+000  0.000000e+000  1.000000e+000
    outer loop
      vertex -1.421085e-014 -1.243450e-014 -9.750000e+001
      vertex  1.162000e+002  3.800000e+000 -9.750000e+001
      vertex  1.038000e+002  3.800000e+000 -9.750000e+001
    endloop
  endfacet
  facet normal  0.000000e+000  0.000000e+000  1.000000e+000
    outer loop
      vertex -1.421085e-014 -1.243450e-014 -9.750000e+001
      vertex  1.038000e+002  3.800000e+000 -9.750000e+001
      vertex -1.200000e+002 -1.421085e-014 -9.750000e+001
    endloop
  endfacet
  facet normal  0.000000e+000  0.000000e+000  1.000000e+000
    outer loop
      vertex -1.200000e+002 -1.421085e-014 -9.750000e+001
      vertex  1.038000e+002  3.800000e+000 -9.750000e+001
      vertex -1.038000e+002  3.800000e+000 -9.750000e+001
    endloop
  endfacet
  facet normal  0.000000e+000  0.000000e+000  1.000000e+000
    outer loop
      vertex -1.200000e+002 -1.421085e-014 -9.750000e+001
      vertex -1.038000e+002  3.800000e+000 -9.750000e+001
      vertex -1.162000e+002  3.800000e+000 -9.750000e+001
    endloop
  endfacet
  facet normal  0.000000e+000  0.000000e+000  1.000000e+000
    outer loop
      vertex  1.098000e+002  8.380000e+001 -9.750000e+001
      vertex  1.098000e+002  1.620000e+001 -9.750000e+001
      vertex  1.162000e+002  8.380000e+001 -9.750000e+001
    endloop
  endfacet
  facet normal  0.000000e+000  0.000000e+000  1.000000e+000
    outer loop
      vertex  1.162000e+002  8.380000e+001 -9.750000e+001
      vertex  1.098000e+002  1.620000e+001 -9.750000e+001
      vertex  1.162000e+002  1.620000e+001 -9.750000e+001
    endloop
  endfacet
  facet normal  0.000000e+000  0.000000e+000  1.000000e+000
    outer loop
      vertex -1.038000e+002  8.980000e+001 -9.750000e+001
      vertex  1.038000e+002  8.980000e+001 -9.750000e+001
      vertex -1.038000e+002  9.620000e+001 -9.750000e+001
    endloop
  endfacet
  facet normal  -0.000000e+000  0.000000e+000  1.000000e+000
    outer loop
      vertex -1.038000e+002  9.620000e+001 -9.750000e+001
      vertex  1.038000e+002  8.980000e+001 -9.750000e+001
      vertex  1.038000e+002  9.620000e+001 -9.750000e+001
    endloop
  endfacet
  facet normal  0.000000e+000  0.000000e+000  1.000000e+000
    outer loop
      vertex -1.038000e+002  9.620000e+001 -9.750000e+001
      vertex  1.038000e+002  9.620000e+001 -9.750000e+001
      vertex -1.421085e-014  1.000000e+002 -9.750000e+001
    endloop
  endfacet
  facet normal  0.000000e+000  0.000000e+000  1.000000e+000
    outer loop
      vertex -1.038000e+002  3.800000e+000 -9.750000e+001
      vertex  1.038000e+002  3.800000e+000 -9.750000e+001
      vertex -1.038000e+002  1.020000e+001 -9.750000e+001
    endloop
  endfacet
  facet normal  -0.000000e+000  0.000000e+000  1.000000e+000
    outer loop
      vertex -1.038000e+002  1.020000e+001 -9.750000e+001
      vertex  1.038000e+002  3.800000e+000 -9.750000e+001
      vertex  1.038000e+002  1.020000e+001 -9.750000e+001
    endloop
  endfacet
  facet normal  0.000000e+000  0.000000e+000 -1.000000e+000
    outer loop
      vertex  1.098000e+002  8.380000e+001 -1.025000e+002
      vertex -1.098000e+002  8.380000e+001 -1.025000e+002
      vertex -1.098000e+002  8.980000e+001 -1.025000e+002
    endloop
  endfacet
  facet normal  0.000000e+000  0.000000e+000 -1.000000e+000
    outer loop
      vertex  1.098000e+002  8.380000e+001 -1.025000e+002
      vertex -1.098000e+002  8.980000e+001 -1.025000e+002
      vertex -1.038000e+002  8.980000e+001 -1.025000e+002
    endloop
  endfacet
  facet normal  0.000000e+000  0.000000e+000 -1.000000e+000
    outer loop
      vertex  1.098000e+002  8.380000e+001 -1.025000e+002
      vertex -1.038000e+002  8.980000e+001 -1.025000e+002
      vertex  1.038000e+002  8.980000e+001 -1.025000e+002
    endloop
  endfacet
  facet normal  0.000000e+000  0.000000e+000 -1.000000e+000
    outer loop
      vertex  1.098000e+002  8.380000e+001 -1.025000e+002
      vertex  1.038000e+002  8.980000e+001 -1.025000e+002
      vertex  1.098000e+002  8.980000e+001 -1.025000e+002
    endloop
  endfacet
  facet normal  -0.000000e+000  -0.000000e+000 -9.999999e-001
    outer loop
      vertex -1.098000e+002  8.380000e+001 -1.025000e+002
      vertex  1.098000e+002  8.380000e+001 -1.025000e+002
      vertex  1.098000e+002  1.620000e+001 -1.025000e+002
    endloop
  endfacet
  facet normal  0.000000e+000  0.000000e+000 -9.999999e-001
    outer loop
      vertex -1.098000e+002  8.380000e+001 -1.025000e+002
      vertex  1.098000e+002  1.620000e+001 -1.025000e+002
      vertex -1.098000e+002  1.620000e+001 -1.025000e+002
    endloop
  endfacet
  facet normal  0.000000e+000  0.000000e+000 -1.000000e+000
    outer loop
      vertex -1.098000e+002  8.380000e+001 -1.025000e+002
      vertex -1.098000e+002  1.620000e+001 -1.025000e+002
      vertex -1.162000e+002  1.620000e+001 -1.025000e+002
    endloop
  endfacet
  facet normal  0.000000e+000  0.000000e+000 -1.000000e+000
    outer loop
      vertex -1.098000e+002  8.380000e+001 -1.025000e+002
      vertex -1.162000e+002  1.620000e+001 -1.025000e+002
      vertex -1.162000e+002  8.380000e+001 -1.025000e+002
    endloop
  endfacet
  facet normal  0.000000e+000  0.000000e+000 -9.999999e-001
    outer loop
      vertex  1.200000e+002  1.000000e+002 -1.025000e+002
      vertex  1.200000e+002 -1.243450e-014 -1.025000e+002
      vertex  1.162000e+002  3.800000e+000 -1.025000e+002
    endloop
  endfacet
  facet normal  0.000000e+000  0.000000e+000 -1.000000e+000
    outer loop
      vertex  1.200000e+002  1.000000e+002 -1.025000e+002
      vertex  1.162000e+002  3.800000e+000 -1.025000e+002
      vertex  1.162000e+002  1.620000e+001 -1.025000e+002
    endloop
  endfacet
  facet normal  0.000000e+000  0.000000e+000 -1.000000e+000
    outer loop
      vertex  1.200000e+002  1.000000e+002 -1.025000e+002
      vertex  1.162000e+002  1.620000e+001 -1.025000e+002
      vertex  1.162000e+002  8.380000e+001 -1.025000e+002
    endloop
  endfacet
  facet normal  0.000000e+000  0.000000e+000 -1.000000e+000
    outer loop
      vertex  1.200000e+002  1.000000e+002 -1.025000e+002
      vertex  1.162000e+002  8.380000e+001 -1.025000e+002
      vertex  1.162000e+002  9.620000e+001 -1.025000e+002
    endloop
  endfacet
  facet normal  0.000000e+000  0.000000e+000 -1.000000e+000
    outer loop
      vertex  1.200000e+002  1.000000e+002 -1.025000e+002
      vertex  1.162000e+002  9.620000e+001 -1.025000e+002
      vertex  1.038000e+002  9.620000e+001 -1.025000e+002
    endloop
  endfacet
  facet normal  0.000000e+000  0.000000e+000 -9.999999e-001
    outer loop
      vertex  1.200000e+002  1.000000e+002 -1.025000e+002
      vertex  1.038000e+002  9.620000e+001 -1.025000e+002
      vertex -1.421085e-014  1.000000e+002 -1.025000e+002
    endloop
  endfacet
  facet normal  -0.000000e+000  0.000000e+000 -9.999999e-001
    outer loop
      vertex -1.200000e+002  1.000000e+002 -1.025000e+002
      vertex -1.421085e-014  1.000000e+002 -1.025000e+002
      vertex -1.038000e+002  9.620000e+001 -1.025000e+002
    endloop
  endfacet
  facet normal  0.000000e+000  0.000000e+000 -1.000000e+000
    outer loop
      vertex -1.200000e+002  1.000000e+002 -1.025000e+002
      vertex -1.038000e+002  9.620000e+001 -1.025000e+002
      vertex -1.162000e+002  9.620000e+001 -1.025000e+002
    endloop
  endfacet
  facet normal  -0.000000e+000  -0.000000e+000 -1.000000e+000
    outer loop
      vertex -1.200000e+002  1.000000e+002 -1.025000e+002
      vertex -1.162000e+002  9.620000e+001 -1.025000e+002
      vertex -1.162000e+002  8.380000e+001 -1.025000e+002
    endloop
  endfacet
  facet normal  -0.000000e+000  -0.000000e+000 -1.000000e+000
    outer loop
      vertex -1.200000e+002  1.000000e+002 -1.025000e+002
      vertex -1.162000e+002  8.380000e+001 -1.025000e+002
      vertex -1.162000e+002  1.620000e+001 -1.025000e+002
    endloop
  endfacet
  facet normal  -0.000000e+000  -0.000000e+000 -1.000000e+000
    outer loop
      vertex -1.200000e+002  1.000000e+002 -1.025000e+002
      vertex -1.162000e+002  1.620000e+001 -1.025000e+002
      vertex -1.162000e+002  3.800000e+000 -1.025000e+002
    endloop
  endfacet
  facet normal  -0.000000e+000  0.000000e+000 -9.999999e-001
    outer loop
      vertex -1.200000e+002  1.000000e+002 -1.025000e+002
      vertex -1.162000e+002  3.800000e+000 -1.025000e+002
      vertex -1.200000e+002 -1.421085e-014 -1.025000e+002
    endloop
  endfacet
  facet normal  0.000000e+000  0.000000e+000 -1.000000e+000
    outer loop
      vertex  1.098000e+002  1.620000e+001 -1.025000e+002
      vertex  1.098000e+002  1.020000e+001 -1.025000e+002
      vertex  1.038000e+002  1.020000e+001 -1.025000e+002
    endloop
  endfacet
  facet normal  0.000000e+000  0.000000e+000 -1.000000e+000
    outer loop
      vertex  1.098000e+002  1.620000e+001 -1.025000e+002
      vertex  1.038000e+002  1.020000e+001 -1.025000e+002
      vertex -1.038000e+002  1.020000e+001 -1.025000e+002
    endloop
  endfacet
  facet normal  0.000000e+000  0.000000e+000 -1.000000e+000
    outer loop
      vertex  1.098000e+002  1.620000e+001 -1.025000e+002
      vertex -1.038000e+002  1.020000e+001 -1.025000e+002
      vertex -1.098000e+002  1.020000e+001 -1.025000e+002
    endloop
  endfacet
  facet normal  0.000000e+000  0.000000e+000 -1.000000e+000
    outer loop
      vertex  1.098000e+002  1.620000e+001 -1.025000e+002
      vertex -1.098000e+002  1.020000e+001 -1.025000e+002
      vertex -1.098000e+002  1.620000e+001 -1.025000e+002
    endloop
  endfacet
  facet normal  0.000000e+000  0.000000e+000 -1.000000e+000
    outer loop
      vertex  1.098000e+002  1.620000e+001 -1.025000e+002
      vertex  1.098000e+002  8.380000e+001 -1.025000e+002
      vertex  1.162000e+002  1.620000e+001 -1.025000e+002
    endloop
  endfacet
  facet normal  0.000000e+000  0.000000e+000 -1.000000e+000
    outer loop
      vertex  1.162000e+002  1.620000e+001 -1.025000e+002
      vertex  1.098000e+002  8.380000e+001 -1.025000e+002
      vertex  1.162000e+002  8.380000e+001 -1.025000e+002
    endloop
  endfacet
  facet normal  -0.000000e+000  0.000000e+000 -1.000000e+000
    outer loop
      vertex -1.162000e+002  3.800000e+000 -1.025000e+002
      vertex -1.038000e+002  3.800000e+000 -1.025000e+002
      vertex -1.200000e+002 -1.421085e-014 -1.025000e+002
    endloop
  endfacet
  facet normal  0.000000e+000  0.000000e+000 -1.000000e+000
    outer loop
      vertex -1.200000e+002 -1.421085e-014 -1.025000e+002
      vertex -1.038000e+002  3.800000e+000 -1.025000e+002
      vertex  1.038000e+002  3.800000e+000 -1.025000e+002
    endloop
  endfacet
  facet normal  0.000000e+000  0.000000e+000 -1.000000e+000
    outer loop
      vertex -1.200000e+002 -1.421085e-014 -1.025000e+002
      vertex  1.038000e+002  3.800000e+000 -1.025000e+002
      vertex -1.421085e-014 -1.243450e-014 -1.025000e+002
    endloop
  endfacet
  facet normal  0.000000e+000  0.000000e+000 -1.000000e+000
    outer loop
      vertex -1.421085e-014 -1.243450e-014 -1.025000e+002
      vertex  1.038000e+002  3.800000e+000 -1.025000e+002
      vertex  1.162000e+002  3.800000e+000 -1.025000e+002
    endloop
  endfacet
  facet normal  0.000000e+000  -0.000000e+000 -1.000000e+000
    outer loop
      vertex -1.421085e-014 -1.243450e-014 -1.025000e+002
      vertex  1.162000e+002  3.800000e+000 -1.025000e+002
      vertex  1.200000e+002 -1.243450e-014 -1.025000e+002
    endloop
  endfacet
  facet normal  0.000000e+000  0.000000e+000 -1.000000e+000
    outer loop
      vertex -1.421085e-014  1.000000e+002 -1.025000e+002
      vertex  1.038000e+002  9.620000e+001 -1.025000e+002
      vertex -1.038000e+002  9.620000e+001 -1.025000e+002
    endloop
  endfacet
  facet normal  0.000000e+000  0.000000e+000 -1.000000e+000
    outer loop
      vertex -1.038000e+002  9.620000e+001 -1.025000e+002
      vertex  1.038000e+002  9.620000e+001 -1.025000e+002
      vertex  1.038000e+002  8.980000e+001 -1.025000e+002
    endloop
  endfacet
  facet normal  0.000000e+000  0.000000e+000 -1.000000e+000
    outer loop
      vertex -1.038000e+002  9.620000e+001 -1.025000e+002
      vertex  1.038000e+002  8.980000e+001 -1.025000e+002
      vertex -1.038000e+002  8.980000e+001 -1.025000e+002
    endloop
  endfacet
  facet normal  0.000000e+000  0.000000e+000 -1.000000e+000
    outer loop
      vertex -1.038000e+002  3.800000e+000 -1.025000e+002
      vertex -1.038000e+002  1.020000e+001 -1.025000e+002
      vertex  1.038000e+002  3.800000e+000 -1.025000e+002
    endloop
  endfacet
  facet normal  0.000000e+000  0.000000e+000 -1.000000e+000
    outer loop
      vertex  1.038000e+002  3.800000e+000 -1.025000e+002
      vertex -1.038000e+002  1.020000e+001 -1.025000e+002
      vertex  1.038000e+002  1.020000e+001 -1.025000e+002
    endloop
  endfacet
  facet normal  1.000000e+000  0.000000e+000  0.000000e+000
    outer loop
      vertex  1.038000e+002  9.620000e+001 -1.025000e+002
      vertex  1.038000e+002  9.620000e+001 -9.750000e+001
      vertex  1.038000e+002  8.980000e+001 -1.025000e+002
    endloop
  endfacet
  facet normal  1.000000e+000  0.000000e+000  0.000000e+000
    outer loop
      vertex  1.038000e+002  8.980000e+001 -1.025000e+002
      vertex  1.038000e+002  9.620000e+001 -9.750000e+001
      vertex  1.038000e+002  8.980000e+001 -9.750000e+001
    endloop
  endfacet
  facet normal  0.000000e+000  1.000000e+000  0.000000e+000
    outer loop
      vertex  1.038000e+002  8.980000e+001 -1.025000e+002
      vertex  1.038000e+002  8.980000e+001 -9.750000e+001
      vertex  1.098000e+002  8.980000e+001 -1.025000e+002
    endloop
  endfacet
  facet normal  0.000000e+000  1.000000e+000  -0.000000e+000
    outer loop
      vertex  1.098000e+002  8.980000e+001 -1.025000e+002
      vertex  1.038000e+002  8.980000e+001 -9.750000e+001
      vertex  1.098000e+002  8.980000e+001 -9.750000e+001
    endloop
  endfacet
  facet normal  1.000000e+000  0.000000e+000  0.000000e+000
    outer loop
      vertex  1.098000e+002  8.980000e+001 -1.025000e+002
      vertex  1.098000e+002  8.980000e+001 -9.750000e+001
      vertex  1.098000e+002  8.380000e+001 -1.025000e+002
    endloop
  endfacet
  facet normal  1.000000e+000  0.000000e+000  0.000000e+000
    outer loop
      vertex  1.098000e+002  8.380000e+001 -1.025000e+002
      vertex  1.098000e+002  8.980000e+001 -9.750000e+001
      vertex  1.098000e+002  8.380000e+001 -9.750000e+001
    endloop
  endfacet
  facet normal  0.000000e+000  1.000000e+000  0.000000e+000
    outer loop
      vertex  1.098000e+002  8.380000e+001 -1.025000e+002
      vertex  1.098000e+002  8.380000e+001 -9.750000e+001
      vertex  1.162000e+002  8.380000e+001 -1.025000e+002
    endloop
  endfacet
  facet normal  0.000000e+000  1.000000e+000  -0.000000e+000
    outer loop
      vertex  1.162000e+002  8.380000e+001 -1.025000e+002
      vertex  1.098000e+002  8.380000e+001 -9.750000e+001
      vertex  1.162000e+002  8.380000e+001 -9.750000e+001
    endloop
  endfacet
  facet normal -1.000000e+000  0.000000e+000  0.000000e+000
    outer loop
      vertex  1.162000e+002  8.380000e+001 -1.025000e+002
      vertex  1.162000e+002  8.380000e+001 -9.750000e+001
      vertex  1.162000e+002  9.620000e+001 -1.025000e+002
    endloop
  endfacet
  facet normal -1.000000e+000  0.000000e+000  0.000000e+000
    outer loop
      vertex  1.162000e+002  9.620000e+001 -1.025000e+002
      vertex  1.162000e+002  8.380000e+001 -9.750000e+001
      vertex  1.162000e+002  9.620000e+001 -9.750000e+001
    endloop
  endfacet
  facet normal  0.000000e+000 -1.000000e+000  -0.000000e+000
    outer loop
      vertex  1.162000e+002  9.620000e+001 -1.025000e+002
      vertex  1.162000e+002  9.620000e+001 -9.750000e+001
      vertex  1.038000e+002  9.620000e+001 -1.025000e+002
    endloop
  endfacet
  facet normal  0.000000e+000 -1.000000e+000  0.000000e+000
    outer loop
      vertex  1.038000e+002  9.620000e+001 -1.025000e+002
      vertex  1.162000e+002  9.620000e+001 -9.750000e+001
      vertex  1.038000e+002  9.620000e+001 -9.750000e+001
    endloop
  endfacet
  facet normal  0.000000e+000  1.000000e+000  0.000000e+000
    outer loop
      vertex  1.162000e+002  3.800000e+000 -1.025000e+002
      vertex  1.038000e+002  3.800000e+000 -1.025000e+002
      vertex  1.162000e+002  3.800000e+000 -9.750000e+001
    endloop
  endfacet
  facet normal  0.000000e+000  1.000000e+000  0.000000e+000
    outer loop
      vertex  1.162000e+002  3.800000e+000 -9.750000e+001
      vertex  1.038000e+002  3.800000e+000 -1.025000e+002
      vertex  1.038000e+002  3.800000e+000 -9.750000e+001
    endloop
  endfacet
  facet normal -1.000000e+000  0.000000e+000  0.000000e+000
    outer loop
      vertex  1.162000e+002  3.800000e+000 -1.025000e+002
      vertex  1.162000e+002  3.800000e+000 -9.750000e+001
      vertex  1.162000e+002  1.620000e+001 -1.025000e+002
    endloop
  endfacet
  facet normal -1.000000e+000  0.000000e+000  0.000000e+000
    outer loop
      vertex  1.162000e+002  1.620000e+001 -1.025000e+002
      vertex  1.162000e+002  3.800000e+000 -9.750000e+001
      vertex  1.162000e+002  1.620000e+001 -9.750000e+001
    endloop
  endfacet
  facet normal  0.000000e+000 -1.000000e+000  0.000000e+000
    outer loop
      vertex  1.098000e+002  1.620000e+001 -1.025000e+002
      vertex  1.162000e+002  1.620000e+001 -1.025000e+002
      vertex  1.098000e+002  1.620000e+001 -9.750000e+001
    endloop
  endfacet
  facet normal  0.000000e+000 -1.000000e+000  0.000000e+000
    outer loop
      vertex  1.098000e+002  1.620000e+001 -9.750000e+001
      vertex  1.162000e+002  1.620000e+001 -1.025000e+002
      vertex  1.162000e+002  1.620000e+001 -9.750000e+001
    endloop
  endfacet
  facet normal  9.999999e-001  0.000000e+000  0.000000e+000
    outer loop
      vertex  1.098000e+002  1.620000e+001 -1.025000e+002
      vertex  1.098000e+002  1.620000e+001 -9.750000e+001
      vertex  1.098000e+002  1.020000e+001 -1.025000e+002
    endloop
  endfacet
  facet normal  9.999999e-001  0.000000e+000  0.000000e+000
    outer loop
      vertex  1.098000e+002  1.020000e+001 -1.025000e+002
      vertex  1.098000e+002  1.620000e+001 -9.750000e+001
      vertex  1.098000e+002  1.020000e+001 -9.750000e+001
    endloop
  endfacet
  facet normal  0.000000e+000 -1.000000e+000  0.000000e+000
    outer loop
      vertex  1.038000e+002  1.020000e+001 -1.025000e+002
      vertex  1.098000e+002  1.020000e+001 -1.025000e+002
      vertex  1.038000e+002  1.020000e+001 -9.750000e+001
    endloop
  endfacet
  facet normal  0.000000e+000 -1.000000e+000  0.000000e+000
    outer loop
      vertex  1.038000e+002  1.020000e+001 -9.750000e+001
      vertex  1.098000e+002  1.020000e+001 -1.025000e+002
      vertex  1.098000e+002  1.020000e+001 -9.750000e+001
    endloop
  endfacet
  facet normal  1.000000e+000  0.000000e+000  0.000000e+000
    outer loop
      vertex  1.038000e+002  1.020000e+001 -1.025000e+002
      vertex  1.038000e+002  1.020000e+001 -9.750000e+001
      vertex  1.038000e+002  3.800000e+000 -1.025000e+002
    endloop
  endfacet
  facet normal  1.000000e+000  0.000000e+000  0.000000e+000
    outer loop
      vertex  1.038000e+002  3.800000e+000 -1.025000e+002
      vertex  1.038000e+002  1.020000e+001 -9.750000e+001
      vertex  1.038000e+002  3.800000e+000 -9.750000e+001
    endloop
  endfacet
  facet normal -1.000000e+000  0.000000e+000  0.000000e+000
    outer loop
      vertex -1.038000e+002  3.800000e+000 -1.025000e+002
      vertex -1.038000e+002  3.800000e+000 -9.750000e+001
      vertex -1.038000e+002  1.020000e+001 -1.025000e+002
    endloop
  endfacet
  facet normal -1.000000e+000  0.000000e+000  0.000000e+000
    outer loop
      vertex -1.038000e+002  1.020000e+001 -1.025000e+002
      vertex -1.038000e+002  3.800000e+000 -9.750000e+001
      vertex -1.038000e+002  1.020000e+001 -9.750000e+001
    endloop
  endfacet
  facet normal  0.000000e+000 -1.000000e+000  0.000000e+000
    outer loop
      vertex -1.098000e+002  1.020000e+001 -1.025000e+002
      vertex -1.038000e+002  1.020000e+001 -1.025000e+002
      vertex -1.098000e+002  1.020000e+001 -9.750000e+001
    endloop
  endfacet
  facet normal  0.000000e+000 -1.000000e+000  0.000000e+000
    outer loop
      vertex -1.098000e+002  1.020000e+001 -9.750000e+001
      vertex -1.038000e+002  1.020000e+001 -1.025000e+002
      vertex -1.038000e+002  1.020000e+001 -9.750000e+001
    endloop
  endfacet
  facet normal -9.999999e-001  0.000000e+000  0.000000e+000
    outer loop
      vertex -1.098000e+002  1.020000e+001 -1.025000e+002
      vertex -1.098000e+002  1.020000e+001 -9.750000e+001
      vertex -1.098000e+002  1.620000e+001 -1.025000e+002
    endloop
  endfacet
  facet normal -9.999999e-001  0.000000e+000  0.000000e+000
    outer loop
      vertex -1.098000e+002  1.620000e+001 -1.025000e+002
      vertex -1.098000e+002  1.020000e+001 -9.750000e+001
      vertex -1.098000e+002  1.620000e+001 -9.750000e+001
    endloop
  endfacet
  facet normal  0.000000e+000 -1.000000e+000  0.000000e+000
    outer loop
      vertex -1.162000e+002  1.620000e+001 -1.025000e+002
      vertex -1.098000e+002  1.620000e+001 -1.025000e+002
      vertex -1.162000e+002  1.620000e+001 -9.750000e+001
    endloop
  endfacet
  facet normal  0.000000e+000 -1.000000e+000  0.000000e+000
    outer loop
      vertex -1.162000e+002  1.620000e+001 -9.750000e+001
      vertex -1.098000e+002  1.620000e+001 -1.025000e+002
      vertex -1.098000e+002  1.620000e+001 -9.750000e+001
    endloop
  endfacet
  facet normal  1.000000e+000  0.000000e+000  0.000000e+000
    outer loop
      vertex -1.162000e+002  1.620000e+001 -1.025000e+002
      vertex -1.162000e+002  1.620000e+001 -9.750000e+001
      vertex -1.162000e+002  3.800000e+000 -1.025000e+002
    endloop
  endfacet
  facet normal  1.000000e+000  0.000000e+000  0.000000e+000
    outer loop
      vertex -1.162000e+002  3.800000e+000 -1.025000e+002
      vertex -1.162000e+002  1.620000e+001 -9.750000e+001
      vertex -1.162000e+002  3.800000e+000 -9.750000e+001
    endloop
  endfacet
  facet normal  0.000000e+000  1.000000e+000  0.000000e+000
    outer loop
      vertex -1.038000e+002  3.800000e+000 -1.025000e+002
      vertex -1.162000e+002  3.800000e+000 -1.025000e+002
      vertex -1.038000e+002  3.800000e+000 -9.750000e+001
    endloop
  endfacet
  facet normal  0.000000e+000  1.000000e+000  0.000000e+000
    outer loop
      vertex -1.038000e+002  3.800000e+000 -9.750000e+001
      vertex -1.162000e+002  3.800000e+000 -1.025000e+002
      vertex -1.162000e+002  3.800000e+000 -9.750000e+001
    endloop
  endfacet
  facet normal  0.000000e+000 -1.000000e+000  -0.000000e+000
    outer loop
      vertex -1.038000e+002  9.620000e+001 -1.025000e+002
      vertex -1.038000e+002  9.620000e+001 -9.750000e+001
      vertex -1.162000e+002  9.620000e+001 -1.025000e+002
    endloop
  endfacet
  facet normal  0.000000e+000 -1.000000e+000  0.000000e+000
    outer loop
      vertex -1.162000e+002  9.620000e+001 -1.025000e+002
      vertex -1.038000e+002  9.620000e+001 -9.750000e+001
      vertex -1.162000e+002  9.620000e+001 -9.750000e+001
    endloop
  endfacet
  facet normal  1.000000e+000  0.000000e+000  0.000000e+000
    outer loop
      vertex -1.162000e+002  9.620000e+001 -1.025000e+002
      vertex -1.162000e+002  9.620000e+001 -9.750000e+001
      vertex -1.162000e+002  8.380000e+001 -1.025000e+002
    endloop
  endfacet
  facet normal  1.000000e+000  0.000000e+000  0.000000e+000
    outer loop
      vertex -1.162000e+002  8.380000e+001 -1.025000e+002
      vertex -1.162000e+002  9.620000e+001 -9.750000e+001
      vertex -1.162000e+002  8.380000e+001 -9.750000e+001
    endloop
  endfacet
  facet normal  0.000000e+000  1.000000e+000  0.000000e+000
    outer loop
      vertex -1.162000e+002  8.380000e+001 -1.025000e+002
      vertex -1.162000e+002  8.380000e+001 -9.750000e+001
      vertex -1.098000e+002  8.380000e+001 -1.025000e+002
    endloop
  endfacet
  facet normal  0.000000e+000  1.000000e+000  -0.000000e+000
    outer loop
      vertex -1.098000e+002  8.380000e+001 -1.025000e+002
      vertex -1.162000e+002  8.380000e+001 -9.750000e+001
      vertex -1.098000e+002  8.380000e+001 -9.750000e+001
    endloop
  endfacet
  facet normal -1.000000e+000  0.000000e+000  0.000000e+000
    outer loop
      vertex -1.098000e+002  8.380000e+001 -1.025000e+002
      vertex -1.098000e+002  8.380000e+001 -9.750000e+001
      vertex -1.098000e+002  8.980000e+001 -1.025000e+002
    endloop
  endfacet
  facet normal -1.000000e+000  0.000000e+000  0.000000e+000
    outer loop
      vertex -1.098000e+002  8.980000e+001 -1.025000e+002
      vertex -1.098000e+002  8.380000e+001 -9.750000e+001
      vertex -1.098000e+002  8.980000e+001 -9.750000e+001
    endloop
  endfacet
  facet normal  0.000000e+000  1.000000e+000  0.000000e+000
    outer loop
      vertex -1.098000e+002  8.980000e+001 -1.025000e+002
      vertex -1.098000e+002  8.980000e+001 -9.750000e+001
      vertex -1.038000e+002  8.980000e+001 -1.025000e+002
    endloop
  endfacet
  facet normal  0.000000e+000  1.000000e+000  -0.000000e+000
    outer loop
      vertex -1.038000e+002  8.980000e+001 -1.025000e+002
      vertex -1.098000e+002  8.980000e+001 -9.750000e+001
      vertex -1.038000e+002  8.980000e+001 -9.750000e+001
    endloop
  endfacet
  facet normal -1.000000e+000  0.000000e+000  0.000000e+000
    outer loop
      vertex -1.038000e+002  8.980000e+001 -1.025000e+002
      vertex -1.038000e+002  8.980000e+001 -9.750000e+001
      vertex -1.038000e+002  9.620000e+001 -1.025000e+002
    endloop
  endfacet
  facet normal -1.000000e+000  0.000000e+000  0.000000e+000
    outer loop
      vertex -1.038000e+002  9.620000e+001 -1.025000e+002
      vertex -1.038000e+002  8.980000e+001 -9.750000e+001
      vertex -1.038000e+002  9.620000e+001 -9.750000e+001
    endloop
  endfacet
  facet normal  0.000000e+000  1.000000e+000  0.000000e+000
    outer loop
      vertex  1.200000e+002  1.000000e+002 -1.025000e+002
      vertex -1.421085e-014  1.000000e+002 -1.025000e+002
      vertex  1.200000e+002  1.000000e+002 -9.750000e+001
    endloop
  endfacet
  facet normal  0.000000e+000  1.000000e+000  0.000000e+000
    outer loop
      vertex  1.200000e+002  1.000000e+002 -9.750000e+001
      vertex -1.421085e-014  1.000000e+002 -1.025000e+002
      vertex -1.421085e-014  1.000000e+002 -9.750000e+001
    endloop
  endfacet
  facet normal  1.000000e+000  0.000000e+000  0.000000e+000
    outer loop
      vertex  1.200000e+002 -1.243450e-014 -1.025000e+002
      vertex  1.200000e+002  1.000000e+002 -1.025000e+002
      vertex  1.200000e+002 -1.243450e-014 -9.750000e+001
    endloop
  endfacet
  facet normal  1.000000e+000  -0.000000e+000  0.000000e+000
    outer loop
      vertex  1.200000e+002 -1.243450e-014 -9.750000e+001
      vertex  1.200000e+002  1.000000e+002 -1.025000e+002
      vertex  1.200000e+002  1.000000e+002 -9.750000e+001
    endloop
  endfacet
  facet normal  0.000000e+000 -1.000000e+000  0.000000e+000
    outer loop
      vertex -1.421085e-014 -1.243450e-014 -1.025000e+002
      vertex  1.200000e+002 -1.243450e-014 -1.025000e+002
      vertex -1.421085e-014 -1.243450e-014 -9.750000e+001
    endloop
  endfacet
  facet normal  0.000000e+000 -1.000000e+000  0.000000e+000
    outer loop
      vertex -1.421085e-014 -1.243450e-014 -9.750000e+001
      vertex  1.200000e+002 -1.243450e-014 -1.025000e+002
      vertex  1.200000e+002 -1.243450e-014 -9.750000e+001
    endloop
  endfacet
  facet normal  1.480297e-017 -1.000000e+000  0.000000e+000
    outer loop
      vertex -1.200000e+002 -1.421085e-014 -1.025000e+002
      vertex -1.421085e-014 -1.243450e-014 -1.025000e+002
      vertex -1.200000e+002 -1.421085e-014 -9.750000e+001
    endloop
  endfacet
  facet normal  1.480297e-017 -1.000000e+000  0.000000e+000
    outer loop
      vertex -1.200000e+002 -1.421085e-014 -9.750000e+001
      vertex -1.421085e-014 -1.243450e-014 -1.025000e+002
      vertex -1.421085e-014 -1.243450e-014 -9.750000e+001
    endloop
  endfacet
  facet normal -1.000000e+000  0.000000e+000  0.000000e+000
    outer loop
      vertex -1.200000e+002 -1.421085e-014 -1.025000e+002
      vertex -1.200000e+002 -1.421085e-014 -9.750000e+001
      vertex -1.200000e+002  1.000000e+002 -1.025000e+002
    endloop
  endfacet
  facet normal -1.000000e+000  0.000000e+000  0.000000e+000
    outer loop
      vertex -1.200000e+002  1.000000e+002 -1.025000e+002
      vertex -1.200000e+002 -1.421085e-014 -9.750000e+001
      vertex -1.200000e+002  1.000000e+002 -9.750000e+001
    endloop
  endfacet
  facet normal  0.000000e+000  1.000000e+000  0.000000e+000
    outer loop
      vertex -1.421085e-014  1.000000e+002 -1.025000e+002
      vertex -1.200000e+002  1.000000e+002 -1.025000e+002
      vertex -1.421085e-014  1.000000e+002 -9.750000e+001
    endloop
  endfacet
  facet normal  0.000000e+000  1.000000e+000  0.000000e+000
    outer loop
      vertex -1.421085e-014  1.000000e+002 -9.750000e+001
      vertex -1.200000e+002  1.000000e+002 -1.025000e+002
      vertex -1.200000e+002  1.000000e+002 -9.750000e+001
    endloop
  endfacet
endsolid CATIA STL
